<svg width="60" height="60" viewBox="0 0 60 60" fill="none" xmlns="http://www.w3.org/2000/svg">
<g filter="url(#filter0_dd_630_7990)">
<circle cx="30" cy="30" r="30" fill="#F0F0F0"/>
<path d="M14 30C14 31.3279 15.0765 32.4045 16.4045 32.4045H27.5501V43.5501C27.5501 44.9031 28.647 46 30 46V46C31.353 46 32.4499 44.9031 32.4499 43.5501V32.4045H43.5955C44.9235 32.4045 46 31.3279 46 30V30C46 28.6721 44.9235 27.5955 43.5955 27.5955H32.4499V16.4499C32.4499 15.0969 31.353 14 30 14V14C28.647 14 27.5501 15.0969 27.5501 16.4499V27.5955H16.4044C15.0765 27.5955 14 28.6721 14 30V30Z" fill="#242526"/>
</g>
<defs>
<filter id="filter0_dd_630_7990" x="0" y="0" width="60" height="60" filterUnits="userSpaceOnUse" color-interpolation-filters="sRGB">
<feFlood flood-opacity="0" result="BackgroundImageFix"/>
<feColorMatrix in="SourceAlpha" type="matrix" values="0 0 0 0 0 0 0 0 0 0 0 0 0 0 0 0 0 0 127 0" result="hardAlpha"/>
<feMorphology radius="16" operator="erode" in="SourceAlpha" result="effect1_dropShadow_630_7990"/>
<feOffset dy="1"/>
<feGaussianBlur stdDeviation="2.5"/>
<feComposite in2="hardAlpha" operator="out"/>
<feColorMatrix type="matrix" values="0 0 0 0 0 0 0 0 0 0 0 0 0 0 0 0 0 0 0.2 0"/>
<feBlend mode="normal" in2="BackgroundImageFix" result="effect1_dropShadow_630_7990"/>
<feColorMatrix in="SourceAlpha" type="matrix" values="0 0 0 0 0 0 0 0 0 0 0 0 0 0 0 0 0 0 127 0" result="hardAlpha"/>
<feMorphology radius="16" operator="erode" in="SourceAlpha" result="effect2_dropShadow_630_7990"/>
<feOffset/>
<feGaussianBlur stdDeviation="4"/>
<feComposite in2="hardAlpha" operator="out"/>
<feColorMatrix type="matrix" values="0 0 0 0 0 0 0 0 0 0 0 0 0 0 0 0 0 0 0.53 0"/>
<feBlend mode="normal" in2="effect1_dropShadow_630_7990" result="effect2_dropShadow_630_7990"/>
<feBlend mode="normal" in="SourceGraphic" in2="effect2_dropShadow_630_7990" result="shape"/>
</filter>
</defs>
</svg>
