<svg width="60" height="60" viewBox="0 0 60 60" fill="none" xmlns="http://www.w3.org/2000/svg">
<g filter="url(#filter0_d_639_7477)">
<circle cx="30" cy="30" r="30" fill="#3DCE4B"/>
<path d="M23.3333 38.3333H26V22.3333H23.3333V38.3333ZM28.6667 43.6667H31.3333V17H28.6667V43.6667ZM18 33H20.6667V27.6667H18V33ZM34 38.3333H36.6667V22.3333H34V38.3333ZM39.3333 27.6667V33H42V27.6667H39.3333Z" fill="#F0F0F0"/>
<path d="M36.5524 14.9844C36.5524 15.4824 36.9561 15.886 37.4541 15.886H41.6337V20.0657C41.6337 20.5731 42.045 20.9844 42.5524 20.9844V20.9844C43.0598 20.9844 43.4711 20.5731 43.4711 20.0657V15.886H47.6508C48.1487 15.886 48.5524 15.4824 48.5524 14.9844V14.9844C48.5524 14.4864 48.1487 14.0827 47.6508 14.0827H43.4711V9.90309C43.4711 9.3957 43.0598 8.98438 42.5524 8.98438V8.98438C42.045 8.98438 41.6337 9.3957 41.6337 9.90309V14.0827H37.4541C36.9561 14.0827 36.5524 14.4864 36.5524 14.9844V14.9844Z" fill="white"/>
</g>
<defs>
<filter id="filter0_d_639_7477" x="0" y="0" width="60" height="60" filterUnits="userSpaceOnUse" color-interpolation-filters="sRGB">
<feFlood flood-opacity="0" result="BackgroundImageFix"/>
<feColorMatrix in="SourceAlpha" type="matrix" values="0 0 0 0 0 0 0 0 0 0 0 0 0 0 0 0 0 0 127 0" result="hardAlpha"/>
<feMorphology radius="16" operator="erode" in="SourceAlpha" result="effect1_dropShadow_639_7477"/>
<feOffset dy="1"/>
<feGaussianBlur stdDeviation="2.5"/>
<feComposite in2="hardAlpha" operator="out"/>
<feColorMatrix type="matrix" values="0 0 0 0 0 0 0 0 0 0 0 0 0 0 0 0 0 0 0.2 0"/>
<feBlend mode="normal" in2="BackgroundImageFix" result="effect1_dropShadow_639_7477"/>
<feBlend mode="normal" in="SourceGraphic" in2="effect1_dropShadow_639_7477" result="shape"/>
</filter>
</defs>
</svg>
