<svg width="32" height="32" viewBox="0 0 32 32" fill="none" xmlns="http://www.w3.org/2000/svg">
<g clip-path="url(#clip0_1303_29255)">
<path d="M8.49919 7.30566C6.70399 9.09606 -1.14401 20.2897 5.63679 27.0689C12.4144 33.8497 23.6048 26.0001 25.4032 24.2065C27.1968 22.4161 24.8672 17.1745 20.2 12.5073C15.5296 7.83686 10.2944 5.50566 8.49919 7.30566V7.30566ZM23.3216 22.6497C22.7904 23.1745 18.6896 21.9185 14.7392 17.9649C10.792 14.0145 9.52959 9.91206 10.0608 9.38406C10.5856 8.85286 14.6912 10.1153 18.6368 14.0657C22.5904 18.0129 23.8496 22.1185 23.3216 22.6497V22.6497ZM24.6944 9.57126L27.7408 6.52166C28.0408 6.22165 28.2093 5.81474 28.2093 5.39046C28.2093 4.96618 28.0408 4.55927 27.7408 4.25926C27.4408 3.95925 27.0339 3.7907 26.6096 3.7907C26.1853 3.7907 25.7784 3.95925 25.4784 4.25926L22.432 7.30886C22.132 7.60887 21.9634 8.01578 21.9634 8.44006C21.9634 8.65014 22.0048 8.85817 22.0852 9.05226C22.1656 9.24635 22.2834 9.42271 22.432 9.57126C22.5805 9.71981 22.7569 9.83765 22.951 9.91805C23.1451 9.99844 23.3531 10.0398 23.5632 10.0398C23.9875 10.0398 24.3944 9.87127 24.6944 9.57126ZM17.7984 6.08006C17.982 6.18218 18.184 6.24714 18.3927 6.27121C18.6015 6.29528 18.8129 6.278 19.015 6.22035C19.217 6.1627 19.4058 6.06582 19.5704 5.93523C19.735 5.80464 19.8723 5.64291 19.9744 5.45926L21.7136 2.37766C21.9198 2.00678 21.9703 1.56917 21.8539 1.16109C21.7374 0.75301 21.4637 0.407893 21.0928 0.201661C20.7219 -0.00457144 20.2843 -0.055026 19.8762 0.0613965C19.4681 0.177819 19.123 0.451582 18.9168 0.822461L17.1776 3.90406C17.0755 4.0877 17.0105 4.28966 16.9864 4.4984C16.9624 4.70714 16.9797 4.91858 17.0373 5.12064C17.0949 5.3227 17.1918 5.51143 17.3224 5.67605C17.453 5.84067 17.6147 5.97795 17.7984 6.08006V6.08006ZM31.7952 10.9057C31.6932 10.7219 31.556 10.56 31.3914 10.4293C31.2268 10.2986 31.0381 10.2016 30.836 10.1439C30.6338 10.0863 30.4223 10.069 30.2135 10.0932C30.0047 10.1174 29.8028 10.1825 29.6192 10.2849L26.5152 11.9825C26.3315 12.0846 26.1698 12.2219 26.0392 12.3865C25.9087 12.5511 25.8118 12.7398 25.7541 12.9419C25.6965 13.1439 25.6792 13.3554 25.7033 13.5641C25.7273 13.7729 25.7923 13.9748 25.8944 14.1585C25.9965 14.3421 26.1338 14.5038 26.2984 14.6344C26.463 14.765 26.6518 14.8619 26.8538 14.9195C27.0559 14.9772 27.2673 14.9945 27.4761 14.9704C27.6848 14.9463 27.8867 14.8814 28.0704 14.7793L31.1744 13.0817C31.358 12.9796 31.5198 12.8423 31.6504 12.6776C31.7809 12.513 31.8778 12.3243 31.9355 12.1222C31.9931 11.9202 32.0104 11.7087 31.9863 11.5C31.9623 11.2913 31.8973 11.0893 31.7952 10.9057V10.9057Z" fill="#F0F0F0" fill-opacity="0.5"/>
</g>
<defs>
<clipPath id="clip0_1303_29255">
<rect width="32" height="32" fill="white"/>
</clipPath>
</defs>
</svg>
