<svg width="20" height="20" viewBox="0 0 20 20" fill="none" xmlns="http://www.w3.org/2000/svg">
<path d="M2.22222 13.2024V6.5357H10V13.2024H2.22222ZM18.8889 7.09125C19.1956 7.09125 19.4575 7.19976 19.6745 7.41677C19.8915 7.63379 20 7.89565 20 8.20236V11.5357C20 11.8424 19.8915 12.1043 19.6745 12.3213C19.4575 12.5383 19.1956 12.6468 18.8889 12.6468V14.0357C18.8889 14.4176 18.7529 14.7446 18.4809 15.0166C18.2089 15.2886 17.8819 15.4246 17.5 15.4246H1.38889C1.00694 15.4246 0.679977 15.2886 0.407986 15.0166C0.135995 14.7446 0 14.4176 0 14.0357V5.70236C0 5.32042 0.135995 4.99345 0.407986 4.72146C0.679977 4.44947 1.00694 4.31348 1.38889 4.31348H17.5C17.8819 4.31348 18.2089 4.44947 18.4809 4.72146C18.7529 4.99345 18.8889 5.32042 18.8889 5.70236V7.09125ZM18.8889 11.5357V8.20236H17.7778V5.70236C17.7778 5.62135 17.7517 5.5548 17.6997 5.50271C17.6476 5.45063 17.581 5.42459 17.5 5.42459H1.38889C1.30787 5.42459 1.24132 5.45063 1.18924 5.50271C1.13715 5.5548 1.11111 5.62135 1.11111 5.70236V14.0357C1.11111 14.1167 1.13715 14.1833 1.18924 14.2353C1.24132 14.2874 1.30787 14.3135 1.38889 14.3135H17.5C17.581 14.3135 17.6476 14.2874 17.6997 14.2353C17.7517 14.1833 17.7778 14.1167 17.7778 14.0357V11.5357H18.8889Z" fill="#F0F0F0" fill-opacity="0.5"/>
</svg>
