<svg width="71" height="70" viewBox="0 0 71 70" fill="none" xmlns="http://www.w3.org/2000/svg">
<g clip-path="url(#clip0_626_6434)">
<path d="M8.27778 46.2068V22.8735H35.5V46.2068H8.27778ZM66.6111 24.8179C67.6846 24.8179 68.6011 25.1977 69.3607 25.9572C70.1202 26.7168 70.5 27.6333 70.5 28.7068V40.3735C70.5 41.447 70.1202 42.3635 69.3607 43.123C68.6011 43.8826 67.6846 44.2624 66.6111 44.2624V49.1235C66.6111 50.4603 66.1351 51.6047 65.1832 52.5566C64.2312 53.5086 63.0868 53.9846 61.75 53.9846H5.36111C4.02431 53.9846 2.87992 53.5086 1.92795 52.5566C0.975984 51.6047 0.5 50.4603 0.5 49.1235V19.9568C0.5 18.62 0.975984 17.4756 1.92795 16.5237C2.87992 15.5717 4.02431 15.0957 5.36111 15.0957H61.75C63.0868 15.0957 64.2312 15.5717 65.1832 16.5237C66.1351 17.4756 66.6111 18.62 66.6111 19.9568V24.8179ZM66.6111 40.3735V28.7068H62.7222V19.9568C62.7222 19.6732 62.6311 19.4403 62.4488 19.258C62.2665 19.0757 62.0336 18.9846 61.75 18.9846H5.36111C5.07755 18.9846 4.84462 19.0757 4.66233 19.258C4.48003 19.4403 4.38889 19.6732 4.38889 19.9568V49.1235C4.38889 49.407 4.48003 49.64 4.66233 49.8222C4.84462 50.0045 5.07755 50.0957 5.36111 50.0957H61.75C62.0336 50.0957 62.2665 50.0045 62.4488 49.8222C62.6311 49.64 62.7222 49.407 62.7222 49.1235V40.3735H66.6111Z" fill="#F0F0F0" fill-opacity="0.5"/>
</g>
<defs>
<clipPath id="clip0_626_6434">
<rect width="70" height="70" fill="white" transform="translate(0.5)"/>
</clipPath>
</defs>
</svg>
