<svg width="101" height="101" viewBox="0 0 101 101" fill="none" xmlns="http://www.w3.org/2000/svg">
<g filter="url(#filter0_d_604_4640)">
<circle cx="50.5" cy="50.5" r="50.5" fill="#3DCE4B"/>
<path d="M50.5 65.7464C53.4229 65.7464 56.2261 64.5852 58.2929 62.5184C60.3597 60.4516 61.5208 57.6485 61.5208 54.7256V36.075C61.5208 33.1521 60.3597 30.3489 58.2929 28.2821C56.2261 26.2153 53.4229 25.0542 50.5 25.0542C47.5771 25.0542 44.774 26.2153 42.7072 28.2821C40.6404 30.3489 39.4792 33.1521 39.4792 36.075V54.7256C39.4792 57.6485 40.6404 60.4516 42.7072 62.5184C44.774 64.5852 47.5771 65.7464 50.5 65.7464ZM42.8703 36.075C42.8703 34.0514 43.6741 32.1108 45.105 30.6799C46.5358 29.2491 48.4765 28.4452 50.5 28.4452C52.5236 28.4452 54.4642 29.2491 55.8951 30.6799C57.326 32.1108 58.1298 34.0514 58.1298 36.075V54.7256C58.1298 56.7491 57.326 58.6898 55.8951 60.1206C54.4642 61.5515 52.5236 62.3553 50.5 62.3553C48.4765 62.3553 46.5358 61.5515 45.105 60.1206C43.6741 58.6898 42.8703 56.7491 42.8703 54.7256V36.075Z" fill="#F0F0F0"/>
<path d="M42.8703 36.075C42.8703 34.0514 43.6741 32.1108 45.105 30.6799C46.5358 29.2491 48.4765 28.4452 50.5 28.4452C52.5236 28.4452 54.4642 29.2491 55.8951 30.6799C57.326 32.1108 58.1298 34.0514 58.1298 36.075V54.7256C58.1298 56.7491 57.326 58.6898 55.8951 60.1206C54.4642 61.5515 52.5236 62.3553 50.5 62.3553C48.4765 62.3553 46.5358 61.5515 45.105 60.1206C43.6741 58.6898 42.8703 56.7491 42.8703 54.7256V36.075Z" fill="#F0F0F0"/>
<path d="M65.7597 49.6392C65.31 49.6392 64.8787 49.8178 64.5608 50.1358C64.2428 50.4537 64.0642 50.885 64.0642 51.3347V54.7257C64.0642 58.3231 62.6351 61.7732 60.0913 64.3169C57.5476 66.8607 54.0975 68.2897 50.5001 68.2897C46.9027 68.2897 43.4526 66.8607 40.9089 64.3169C38.3651 61.7732 36.9361 58.3231 36.9361 54.7257V51.3347C36.9361 50.885 36.7574 50.4537 36.4395 50.1358C36.1215 49.8178 35.6902 49.6392 35.2406 49.6392C34.7909 49.6392 34.3596 49.8178 34.0416 50.1358C33.7237 50.4537 33.545 50.885 33.545 51.3347V54.7257C33.545 58.9289 35.1062 62.9824 37.9258 66.0996C40.7454 69.2169 44.6224 71.1756 48.8046 71.596V74.224H44.5658C44.1162 74.224 43.6849 74.4026 43.3669 74.7206C43.049 75.0386 42.8703 75.4698 42.8703 75.9195C42.8703 76.3692 43.049 76.8004 43.3669 77.1184C43.6849 77.4364 44.1162 77.615 44.5658 77.615H56.4344C56.8841 77.615 57.3153 77.4364 57.6333 77.1184C57.9513 76.8004 58.1299 76.3692 58.1299 75.9195C58.1299 75.4698 57.9513 75.0386 57.6333 74.7206C57.3153 74.4026 56.8841 74.224 56.4344 74.224H52.1956V71.596C56.3778 71.1756 60.2548 69.2169 63.0744 66.0996C65.894 62.9824 67.4552 58.9289 67.4552 54.7257V51.3347C67.4552 50.885 67.2765 50.4537 66.9586 50.1358C66.6406 49.8178 66.2093 49.6392 65.7597 49.6392Z" fill="#F0F0F0"/>
</g>
<defs>
<filter id="filter0_d_604_4640" x="0" y="0" width="101" height="101" filterUnits="userSpaceOnUse" color-interpolation-filters="sRGB">
<feFlood flood-opacity="0" result="BackgroundImageFix"/>
<feColorMatrix in="SourceAlpha" type="matrix" values="0 0 0 0 0 0 0 0 0 0 0 0 0 0 0 0 0 0 127 0" result="hardAlpha"/>
<feMorphology radius="16" operator="erode" in="SourceAlpha" result="effect1_dropShadow_604_4640"/>
<feOffset dy="1"/>
<feGaussianBlur stdDeviation="2.5"/>
<feComposite in2="hardAlpha" operator="out"/>
<feColorMatrix type="matrix" values="0 0 0 0 0 0 0 0 0 0 0 0 0 0 0 0 0 0 0.2 0"/>
<feBlend mode="normal" in2="BackgroundImageFix" result="effect1_dropShadow_604_4640"/>
<feBlend mode="normal" in="SourceGraphic" in2="effect1_dropShadow_604_4640" result="shape"/>
</filter>
</defs>
</svg>
