<svg width="71" height="70" viewBox="0 0 71 70" fill="none" xmlns="http://www.w3.org/2000/svg">
<path d="M54.225 26.8625C52.4409 22.7669 49.3628 19.3696 45.4625 17.1913C41.5623 15.013 37.0553 14.174 32.6326 14.803C28.2098 15.432 24.1154 17.4942 20.9771 20.6735C17.8388 23.8528 15.8299 27.9736 15.2583 32.4042C12.4775 33.0701 10.0381 34.7341 8.40339 37.0801C6.76864 39.4262 6.0524 42.2909 6.39067 45.1302C6.72894 47.9695 8.09818 50.5858 10.2383 52.4821C12.3785 54.3784 15.1406 55.4227 18 55.4167H50.0833C53.5814 55.407 56.9595 54.1403 59.6015 51.8475C62.2435 49.5547 63.9733 46.3886 64.4754 42.9267C64.9776 39.4648 64.2186 35.9378 62.3369 32.9888C60.4552 30.0399 57.5762 27.8656 54.225 26.8625ZM50.0833 49.5833H18C16.4529 49.5833 14.9692 48.9687 13.8752 47.8748C12.7812 46.7808 12.1667 45.2971 12.1667 43.75C12.1667 42.2029 12.7812 40.7192 13.8752 39.6252C14.9692 38.5312 16.4529 37.9167 18 37.9167C18.7735 37.9167 19.5154 37.6094 20.0624 37.0624C20.6094 36.5154 20.9167 35.7735 20.9167 35C20.9241 31.5504 22.1542 28.2151 24.3883 25.5867C26.6224 22.9583 29.7159 21.2069 33.1193 20.6438C36.5226 20.0807 40.0154 20.7422 42.9771 22.5109C45.9388 24.2795 48.1776 27.0408 49.2958 30.3042C49.4669 30.7999 49.7685 31.2404 50.1689 31.5792C50.5693 31.9179 51.0536 32.1425 51.5708 32.2292C53.7087 32.6236 55.6232 33.7999 56.9413 35.5287C58.2594 37.2575 58.8868 39.4151 58.7011 41.5812C58.5154 43.7472 57.5301 45.7666 55.937 47.2459C54.3439 48.7252 52.2572 49.5584 50.0833 49.5833Z" fill="#F0F0F0" fill-opacity="0.5"/>
</svg>
