<svg width="20" height="20" viewBox="0 0 20 20" fill="none" xmlns="http://www.w3.org/2000/svg">
<path d="M15.35 7.67458C14.8403 6.50442 13.9608 5.53375 12.8465 4.91138C11.7321 4.28901 10.4444 4.04931 9.18076 4.22902C7.91711 4.40873 6.74728 4.99793 5.85063 5.9063C4.95398 6.81466 4.38 7.99204 4.2167 9.25791C3.42219 9.44818 2.72522 9.92361 2.25815 10.5939C1.79108 11.2642 1.58643 12.0827 1.68308 12.8939C1.77973 13.7052 2.17094 14.4527 2.78242 14.9945C3.3939 15.5363 4.18306 15.8346 5.00003 15.8329H14.1667C15.1662 15.8302 16.1313 15.4682 16.8862 14.8132C17.641 14.1581 18.1353 13.2535 18.2787 12.2644C18.4222 11.2752 18.2053 10.2675 17.6677 9.42496C17.1301 8.58241 16.3075 7.96118 15.35 7.67458V7.67458ZM14.1667 14.1662H5.00003C4.558 14.1662 4.13408 13.9907 3.82152 13.6781C3.50896 13.3655 3.33336 12.9416 3.33336 12.4996C3.33336 12.0576 3.50896 11.6336 3.82152 11.3211C4.13408 11.0085 4.558 10.8329 5.00003 10.8329C5.22104 10.8329 5.43301 10.7451 5.58929 10.5888C5.74557 10.4326 5.83336 10.2206 5.83336 9.99958C5.83549 9.01398 6.18694 8.06104 6.82526 7.31007C7.46357 6.55909 8.34744 6.05871 9.31982 5.89781C10.2922 5.73691 11.2901 5.92592 12.1363 6.43125C12.9825 6.93659 13.6222 7.72553 13.9417 8.65791C13.9906 8.79956 14.0768 8.92541 14.1911 9.0222C14.3055 9.11899 14.4439 9.18315 14.5917 9.20791C15.2025 9.32062 15.7495 9.65669 16.1261 10.1506C16.5027 10.6446 16.682 11.261 16.6289 11.8799C16.5759 12.4988 16.2943 13.0757 15.8392 13.4984C15.384 13.9211 14.7878 14.1591 14.1667 14.1662V14.1662Z" fill="#F0F0F0" fill-opacity="0.5"/>
</svg>
