<svg width="269" height="72" viewBox="0 0 269 72" fill="none" xmlns="http://www.w3.org/2000/svg">
<g filter="url(#filter0_d_851_21600)">
<rect x="10" y="2" width="335" height="52" rx="12" fill="#242526" shape-rendering="crispEdges"/>
<g clip-path="url(#clip0_851_21600)">
<path d="M33.4992 19.3056C31.704 21.096 23.856 32.2896 30.6368 39.0688C37.4144 45.8496 48.6048 38 50.4032 36.2064C52.1968 34.416 49.8672 29.1744 45.2 24.5072C40.5296 19.8368 35.2944 17.5056 33.4992 19.3056ZM48.3216 34.6496C47.7904 35.1744 43.6896 33.9184 39.7392 29.9648C35.792 26.0144 34.5296 21.912 35.0608 21.384C35.5856 20.8528 39.6912 22.1152 43.6368 26.0656C47.5904 30.0128 48.8496 34.1184 48.3216 34.6496ZM49.6944 21.5712L52.7408 18.5216C53.0408 18.2216 53.2093 17.8147 53.2093 17.3904C53.2093 16.9661 53.0408 16.5592 52.7408 16.2592C52.4408 15.9592 52.0339 15.7906 51.6096 15.7906C51.1853 15.7906 50.7784 15.9592 50.4784 16.2592L47.432 19.3088C47.132 19.6088 46.9634 20.0157 46.9634 20.44C46.9634 20.6501 47.0048 20.8581 47.0852 21.0522C47.1656 21.2463 47.2834 21.4226 47.432 21.5712C47.5805 21.7198 47.7569 21.8376 47.951 21.918C48.1451 21.9984 48.3531 22.0398 48.5632 22.0398C48.9875 22.0398 49.3944 21.8712 49.6944 21.5712ZM42.7984 18.08C42.982 18.1821 43.184 18.2471 43.3927 18.2711C43.6015 18.2952 43.8129 18.2779 44.015 18.2203C44.217 18.1626 44.4058 18.0658 44.5704 17.9352C44.735 17.8046 44.8723 17.6428 44.9744 17.4592L46.7136 14.3776C46.9198 14.0067 46.9703 13.5691 46.8539 13.161C46.7374 12.7529 46.4637 12.4078 46.0928 12.2016C45.7219 11.9954 45.2843 11.9449 44.8762 12.0613C44.4681 12.1778 44.123 12.4515 43.9168 12.8224L42.1776 15.904C42.0755 16.0876 42.0105 16.2896 41.9864 16.4983C41.9624 16.7071 41.9797 16.9185 42.0373 17.1206C42.0949 17.3226 42.1918 17.5114 42.3224 17.676C42.453 17.8406 42.6147 17.9779 42.7984 18.08ZM56.7952 22.9056C56.6932 22.7218 56.556 22.5599 56.3914 22.4292C56.2268 22.2985 56.0381 22.2015 55.836 22.1439C55.6338 22.0862 55.4223 22.069 55.2135 22.0932C55.0047 22.1173 54.8028 22.1825 54.6192 22.2848L51.5152 23.9824C51.3316 24.0845 51.1698 24.2218 51.0392 24.3864C50.9087 24.551 50.8118 24.7398 50.7541 24.9418C50.6965 25.1439 50.6792 25.3553 50.7033 25.5641C50.7273 25.7728 50.7923 25.9748 50.8944 26.1584C50.9965 26.342 51.1338 26.5038 51.2984 26.6344C51.463 26.7649 51.6518 26.8618 51.8538 26.9195C52.0559 26.9771 52.2673 26.9944 52.4761 26.9703C52.6848 26.9463 52.8867 26.8813 53.0704 26.7792L56.1744 25.0816C56.358 24.9795 56.5198 24.8422 56.6504 24.6776C56.7809 24.513 56.8778 24.3242 56.9355 24.1222C56.9931 23.9201 57.0104 23.7087 56.9863 23.4999C56.9623 23.2912 56.8973 23.0892 56.7952 22.9056Z" fill="#F0F0F0" fill-opacity="0.5"/>
</g>
<path d="M68.4805 34H72.5063C76.0674 34 78.1592 31.7837 78.1592 28.0068V27.9902C78.1592 24.23 76.0508 22.022 72.5063 22.022H68.4805V34ZM69.9746 32.6553V23.3667H72.4067C75.1211 23.3667 76.6318 25.0186 76.6318 28.0068V28.0234C76.6318 30.9951 75.1211 32.6553 72.4067 32.6553H69.9746ZM80.6079 23.9062C81.1143 23.9062 81.5127 23.4995 81.5127 23.0015C81.5127 22.4951 81.1143 22.0967 80.6079 22.0967C80.1099 22.0967 79.7031 22.4951 79.7031 23.0015C79.7031 23.4995 80.1099 23.9062 80.6079 23.9062ZM79.8857 34H81.3301V25.3672H79.8857V34ZM83.2974 34H84.7417V28.9199C84.7417 27.4507 85.6299 26.4795 86.9912 26.4795C88.3193 26.4795 88.9751 27.2515 88.9751 28.6543V34H90.4194V28.397C90.4194 26.4297 89.3237 25.2012 87.4312 25.2012C86.1196 25.2012 85.2397 25.7905 84.7749 26.5957H84.7417V25.3672H83.2974V34ZM95.9146 37.0713C98.2554 37.0713 99.7246 35.7598 99.7246 33.7593V25.3672H98.2803V26.8281H98.2471C97.7158 25.8652 96.7529 25.2012 95.5327 25.2012C93.3413 25.2012 91.8389 26.9443 91.8389 29.6255V29.6338C91.8389 32.3315 93.3247 34.083 95.4995 34.083C96.7363 34.083 97.7324 33.4688 98.2471 32.5142H98.2803V33.6182C98.2803 34.9546 97.417 35.793 95.8979 35.793C94.7192 35.793 93.8975 35.4111 93.6235 34.7886L93.5903 34.7139H92.1377L92.1543 34.7886C92.4365 36.0669 93.7812 37.0713 95.9146 37.0713ZM95.8149 32.8047C94.2793 32.8047 93.3164 31.5928 93.3164 29.6338V29.6255C93.3164 27.708 94.2793 26.4795 95.8149 26.4795C97.2759 26.4795 98.2803 27.7246 98.2803 29.6255V29.6338C98.2803 31.5513 97.2842 32.8047 95.8149 32.8047ZM101.642 29.8164H106.955V28.4717H101.642V29.8164ZM112.126 34.166C113.363 34.166 114.326 33.5435 114.865 32.5391H114.898V34H116.343V22.022H114.898V26.8115H114.865C114.326 25.8154 113.321 25.2012 112.101 25.2012C109.935 25.2012 108.457 26.9526 108.457 29.6753V29.6836C108.457 32.4062 109.918 34.166 112.126 34.166ZM112.408 32.8877C110.881 32.8877 109.935 31.6675 109.935 29.6836V29.6753C109.935 27.708 110.881 26.4795 112.408 26.4795C113.861 26.4795 114.907 27.7495 114.907 29.6753V29.6836C114.907 31.6177 113.869 32.8877 112.408 32.8877ZM121.871 34.166C124.253 34.166 125.864 32.4395 125.864 29.6836V29.667C125.864 26.9111 124.245 25.2012 121.863 25.2012C119.48 25.2012 117.87 26.9194 117.87 29.667V29.6836C117.87 32.4312 119.472 34.166 121.871 34.166ZM121.879 32.8877C120.352 32.8877 119.348 31.7173 119.348 29.6836V29.667C119.348 27.6499 120.36 26.4795 121.863 26.4795C123.39 26.4795 124.386 27.6416 124.386 29.667V29.6836C124.386 31.709 123.398 32.8877 121.879 32.8877ZM127.325 34H128.769V28.9199C128.769 27.4507 129.657 26.4795 131.019 26.4795C132.347 26.4795 133.002 27.2515 133.002 28.6543V34H134.447V28.397C134.447 26.4297 133.351 25.2012 131.458 25.2012C130.147 25.2012 129.267 25.7905 128.802 26.5957H128.769V25.3672H127.325V34ZM139.942 37.0713C142.283 37.0713 143.752 35.7598 143.752 33.7593V25.3672H142.308V26.8281H142.274C141.743 25.8652 140.78 25.2012 139.56 25.2012C137.369 25.2012 135.866 26.9443 135.866 29.6255V29.6338C135.866 32.3315 137.352 34.083 139.527 34.083C140.764 34.083 141.76 33.4688 142.274 32.5142H142.308V33.6182C142.308 34.9546 141.444 35.793 139.925 35.793C138.747 35.793 137.925 35.4111 137.651 34.7886L137.618 34.7139H136.165L136.182 34.7886C136.464 36.0669 137.809 37.0713 139.942 37.0713ZM139.842 32.8047C138.307 32.8047 137.344 31.5928 137.344 29.6338V29.6255C137.344 27.708 138.307 26.4795 139.842 26.4795C141.303 26.4795 142.308 27.7246 142.308 29.6255V29.6338C142.308 31.5513 141.312 32.8047 139.842 32.8047Z" fill="#F0F0F0"/>
<rect x="10.5" y="2.5" width="334" height="51" rx="11.5" stroke="#1C061E" stroke-opacity="0.36" shape-rendering="crispEdges"/>
</g>
<defs>
<filter id="filter0_d_851_21600" x="0" y="0" width="355" height="72" filterUnits="userSpaceOnUse" color-interpolation-filters="sRGB">
<feFlood flood-opacity="0" result="BackgroundImageFix"/>
<feColorMatrix in="SourceAlpha" type="matrix" values="0 0 0 0 0 0 0 0 0 0 0 0 0 0 0 0 0 0 127 0" result="hardAlpha"/>
<feOffset dy="8"/>
<feGaussianBlur stdDeviation="5"/>
<feComposite in2="hardAlpha" operator="out"/>
<feColorMatrix type="matrix" values="0 0 0 0 0 0 0 0 0 0 0 0 0 0 0 0 0 0 0.25 0"/>
<feBlend mode="normal" in2="BackgroundImageFix" result="effect1_dropShadow_851_21600"/>
<feBlend mode="normal" in="SourceGraphic" in2="effect1_dropShadow_851_21600" result="shape"/>
</filter>
<clipPath id="clip0_851_21600">
<rect width="32" height="32" fill="white" transform="translate(25 12)"/>
</clipPath>
</defs>
</svg>
