<svg width="269" height="72" viewBox="0 0 269 72" fill="none" xmlns="http://www.w3.org/2000/svg">
<g filter="url(#filter0_d_851_21588)">
<rect x="10" y="2" width="335" height="52" rx="12" fill="#242526" shape-rendering="crispEdges"/>
<g clip-path="url(#clip0_851_21588)">
<path d="M34.3333 36H37V20H34.3333V36ZM39.6667 41.3333H42.3333V14.6667H39.6667V41.3333ZM29 30.6667H31.6667V25.3333H29V30.6667ZM45 36H47.6667V20H45V36ZM50.3333 25.3333V30.6667H53V25.3333H50.3333Z" fill="#F0F0F0" fill-opacity="0.5"/>
</g>
<path d="M68.5483 34H70.0425V28.812H75.3467V27.4839H70.0425V23.3667H75.8198V22.022H68.5483V34ZM79.248 34.166C80.4019 34.166 81.4395 33.5435 81.9458 32.5972H81.979V34H83.4233V28.0317C83.4233 26.3052 82.145 25.2012 80.103 25.2012C78.0693 25.2012 76.8325 26.3467 76.708 27.7661L76.6997 27.8574H78.0942L78.1108 27.7827C78.2769 27.0107 78.9741 26.4795 80.0864 26.4795C81.29 26.4795 81.979 27.1187 81.979 28.1729V28.895L79.5054 29.0361C77.5215 29.1523 76.376 30.0737 76.376 31.543V31.5596C76.376 33.1284 77.5298 34.166 79.248 34.166ZM77.8535 31.5596V31.543C77.8535 30.7378 78.5176 30.2231 79.6714 30.1567L81.979 30.0156V30.7212C81.979 31.9746 80.9331 32.9126 79.5718 32.9126C78.5342 32.9126 77.8535 32.3896 77.8535 31.5596ZM87.6899 34H89.1675L92.3384 25.3672H90.8359L88.4453 32.4644H88.4121L86.0298 25.3672H84.5107L87.6899 34ZM96.7212 34.166C99.1035 34.166 100.714 32.4395 100.714 29.6836V29.667C100.714 26.9111 99.0952 25.2012 96.7129 25.2012C94.3306 25.2012 92.7202 26.9194 92.7202 29.667V29.6836C92.7202 32.4312 94.3223 34.166 96.7212 34.166ZM96.7295 32.8877C95.2021 32.8877 94.1978 31.7173 94.1978 29.6836V29.667C94.1978 27.6499 95.2104 26.4795 96.7129 26.4795C98.2402 26.4795 99.2363 27.6416 99.2363 29.667V29.6836C99.2363 31.709 98.2485 32.8877 96.7295 32.8877ZM102.175 34H103.619V28.6709C103.619 27.3594 104.35 26.5791 105.47 26.5791C105.819 26.5791 106.126 26.6206 106.242 26.6621V25.2593C106.126 25.2427 105.91 25.2012 105.661 25.2012C104.69 25.2012 103.943 25.832 103.652 26.8281H103.619V25.3672H102.175V34ZM108.234 23.9062C108.741 23.9062 109.139 23.4995 109.139 23.0015C109.139 22.4951 108.741 22.0967 108.234 22.0967C107.736 22.0967 107.33 22.4951 107.33 23.0015C107.33 23.4995 107.736 23.9062 108.234 23.9062ZM107.512 34H108.957V25.3672H107.512V34ZM113.729 34.166C114.012 34.166 114.319 34.1328 114.501 34.1079V32.9375C114.377 32.9458 114.211 32.9707 114.037 32.9707C113.265 32.9707 112.858 32.7134 112.858 31.792V26.5625H114.501V25.3672H112.858V23.0347H111.364V25.3672H110.102V26.5625H111.364V31.8003C111.364 33.4521 112.144 34.166 113.729 34.166ZM119.357 34.166C121.242 34.166 122.653 33.0371 122.935 31.6094L122.952 31.5264H121.532L121.507 31.6011C121.258 32.3398 120.486 32.8877 119.391 32.8877C117.855 32.8877 116.875 31.8501 116.842 30.0737H123.06V29.5425C123.06 26.9526 121.624 25.2012 119.266 25.2012C116.909 25.2012 115.381 27.0356 115.381 29.7085V29.7168C115.381 32.4312 116.875 34.166 119.357 34.166ZM119.258 26.4795C120.52 26.4795 121.449 27.2681 121.59 28.9448H116.867C117.025 27.3345 118.004 26.4795 119.258 26.4795ZM124.745 34H126.139V24.7446H126.189L130.016 34H131.277L135.104 24.7446H135.154V34H136.548V22.022H134.822L130.671 32.1157H130.622L126.471 22.022H124.745V34ZM141.595 34.166C142.907 34.166 143.787 33.5767 144.251 32.7715H144.285V34H145.729V25.3672H144.285V30.4473C144.285 31.9165 143.396 32.8877 142.035 32.8877C140.707 32.8877 140.051 32.1157 140.051 30.7129V25.3672H138.607V30.9702C138.607 32.9375 139.703 34.166 141.595 34.166ZM150.676 34.166C152.602 34.166 154.03 33.1035 154.03 31.5928V31.5845C154.03 30.356 153.399 29.667 151.656 29.2437L150.286 28.9116C149.332 28.6792 148.941 28.2725 148.941 27.6831V27.6748C148.941 26.9111 149.589 26.4048 150.635 26.4048C151.706 26.4048 152.345 26.9609 152.461 27.7993L152.469 27.8574H153.847L153.839 27.7495C153.731 26.3052 152.527 25.2012 150.635 25.2012C148.767 25.2012 147.464 26.2554 147.464 27.7412V27.7495C147.464 28.9946 148.252 29.75 149.879 30.1401L151.249 30.4722C152.229 30.7129 152.552 31.0615 152.552 31.6841V31.6924C152.552 32.4727 151.855 32.9624 150.685 32.9624C149.506 32.9624 148.867 32.4561 148.692 31.5928L148.676 31.5098H147.231L147.24 31.5845C147.414 33.1284 148.643 34.166 150.676 34.166ZM156.346 23.9062C156.852 23.9062 157.25 23.4995 157.25 23.0015C157.25 22.4951 156.852 22.0967 156.346 22.0967C155.848 22.0967 155.441 22.4951 155.441 23.0015C155.441 23.4995 155.848 23.9062 156.346 23.9062ZM155.624 34H157.068V25.3672H155.624V34ZM162.613 34.166C164.563 34.166 165.983 32.896 166.215 31.2524L166.224 31.1943H164.804L164.788 31.2607C164.547 32.2236 163.792 32.8877 162.613 32.8877C161.119 32.8877 160.089 31.7007 160.089 29.6919V29.6836C160.089 27.7246 161.094 26.4795 162.596 26.4795C163.866 26.4795 164.563 27.2432 164.779 28.1064L164.796 28.1729H166.207L166.199 28.1064C166.016 26.6289 164.746 25.2012 162.596 25.2012C160.197 25.2012 158.612 26.9443 158.612 29.667V29.6753C158.612 32.4229 160.164 34.166 162.613 34.166Z" fill="#F0F0F0"/>
<rect x="10.5" y="2.5" width="334" height="51" rx="11.5" stroke="#1C061E" stroke-opacity="0.36" shape-rendering="crispEdges"/>
</g>
<defs>
<filter id="filter0_d_851_21588" x="0" y="0" width="355" height="72" filterUnits="userSpaceOnUse" color-interpolation-filters="sRGB">
<feFlood flood-opacity="0" result="BackgroundImageFix"/>
<feColorMatrix in="SourceAlpha" type="matrix" values="0 0 0 0 0 0 0 0 0 0 0 0 0 0 0 0 0 0 127 0" result="hardAlpha"/>
<feOffset dy="8"/>
<feGaussianBlur stdDeviation="5"/>
<feComposite in2="hardAlpha" operator="out"/>
<feColorMatrix type="matrix" values="0 0 0 0 0 0 0 0 0 0 0 0 0 0 0 0 0 0 0.25 0"/>
<feBlend mode="normal" in2="BackgroundImageFix" result="effect1_dropShadow_851_21588"/>
<feBlend mode="normal" in="SourceGraphic" in2="effect1_dropShadow_851_21588" result="shape"/>
</filter>
<clipPath id="clip0_851_21588">
<rect width="32" height="32" fill="white" transform="translate(25 12)"/>
</clipPath>
</defs>
</svg>
