<svg width="20" height="20" viewBox="0 0 20 20" fill="none" xmlns="http://www.w3.org/2000/svg">
<g clip-path="url(#clip0_1303_9184)">
<path d="M10 6.66634C8.15837 6.66634 6.66671 8.15801 6.66671 9.99967C6.66671 11.8413 8.15837 13.333 10 13.333C11.8417 13.333 13.3334 11.8413 13.3334 9.99967C13.3334 8.15801 11.8417 6.66634 10 6.66634ZM17.45 9.16634C17.0667 5.69134 14.3084 2.93301 10.8334 2.54967V1.66634C10.8334 1.20801 10.4584 0.833008 10 0.833008C9.54171 0.833008 9.16671 1.20801 9.16671 1.66634V2.54967C5.69171 2.93301 2.93337 5.69134 2.55004 9.16634H1.66671C1.20837 9.16634 0.833374 9.54134 0.833374 9.99967C0.833374 10.458 1.20837 10.833 1.66671 10.833H2.55004C2.93337 14.308 5.69171 17.0663 9.16671 17.4497V18.333C9.16671 18.7913 9.54171 19.1663 10 19.1663C10.4584 19.1663 10.8334 18.7913 10.8334 18.333V17.4497C14.3084 17.0663 17.0667 14.308 17.45 10.833H18.3334C18.7917 10.833 19.1667 10.458 19.1667 9.99967C19.1667 9.54134 18.7917 9.16634 18.3334 9.16634H17.45ZM10 15.833C6.77504 15.833 4.16671 13.2247 4.16671 9.99967C4.16671 6.77467 6.77504 4.16634 10 4.16634C13.225 4.16634 15.8334 6.77467 15.8334 9.99967C15.8334 13.2247 13.225 15.833 10 15.833Z" fill="#F0F0F0" fill-opacity="0.5"/>
</g>
<defs>
<clipPath id="clip0_1303_9184">
<rect width="20" height="20" fill="white"/>
</clipPath>
</defs>
</svg>
