<svg width="21" height="20" viewBox="0 0 21 20" fill="none" xmlns="http://www.w3.org/2000/svg">
<path d="M19.16 2.61006C18.0983 1.54806 16.6908 0.902384 15.1933 0.790439C13.6958 0.678494 12.2078 1.10772 11 2.00006C9.72769 1.0537 8.14402 0.624569 6.56795 0.799095C4.99188 0.973621 3.54047 1.73884 2.506 2.94064C1.47154 4.14245 0.930854 5.69158 0.992833 7.27607C1.05481 8.86057 1.71485 10.3627 2.84003 11.4801L10.29 18.9401C10.383 19.0338 10.4936 19.1082 10.6155 19.1589C10.7373 19.2097 10.868 19.2359 11 19.2359C11.132 19.2359 11.2627 19.2097 11.3846 19.1589C11.5065 19.1082 11.6171 19.0338 11.71 18.9401L19.16 11.4801C19.7427 10.8978 20.2049 10.2064 20.5202 9.44542C20.8356 8.68445 20.9979 7.86879 20.9979 7.04506C20.9979 6.22133 20.8356 5.40567 20.5202 4.64469C20.2049 3.88371 19.7427 3.19233 19.16 2.61006ZM17.75 10.0601L11 16.8101L4.25003 10.0601C3.47545 9.30357 3.01797 8.28053 2.97058 7.19886C2.92319 6.11719 3.28944 5.05806 3.99489 4.23672C4.70035 3.41539 5.69207 2.89349 6.7685 2.77708C7.84494 2.66068 8.9253 2.95852 9.79003 3.61006L8.08003 7.61006C8.02061 7.74034 7.98985 7.88186 7.98985 8.02506C7.98985 8.16825 8.02061 8.30978 8.08003 8.44006C8.14354 8.57019 8.23456 8.68499 8.34678 8.77649C8.45901 8.868 8.58977 8.93405 8.73003 8.97006L11.5 9.67006L10.1 12.5601C10.042 12.6782 10.0079 12.8066 9.9996 12.938C9.99133 13.0694 10.0091 13.2011 10.0518 13.3256C10.0945 13.4501 10.1614 13.5649 10.2486 13.6635C10.3359 13.7621 10.4417 13.8425 10.56 13.9001C10.6972 13.9665 10.8477 14.0007 11 14.0001C11.1875 14.0004 11.3712 13.9481 11.5303 13.8491C11.6895 13.7501 11.8176 13.6084 11.9 13.4401L13.9 9.44006C13.964 9.30574 13.9972 9.15884 13.9972 9.01006C13.9972 8.86128 13.964 8.71438 13.9 8.58006C13.8339 8.44597 13.74 8.32754 13.6244 8.23269C13.5089 8.13784 13.3744 8.06876 13.23 8.03006L10.4 7.32006L11.85 3.93006C12.6629 3.14502 13.7544 2.71505 14.8843 2.73474C16.0142 2.75443 17.09 3.22217 17.875 4.03506C18.6601 4.84795 19.09 5.9394 19.0703 7.0693C19.0507 8.19921 18.5829 9.27502 17.77 10.0601H17.75Z" fill="#F0F0F0" fill-opacity="0.5"/>
</svg>
