<svg width="28" height="28" viewBox="0 0 28 28" fill="none" xmlns="http://www.w3.org/2000/svg">
<path d="M24.5 2.3335H3.50004C3.19062 2.3335 2.89388 2.45641 2.67508 2.6752C2.45629 2.894 2.33337 3.19074 2.33337 3.50016V24.5002C2.33337 24.8096 2.45629 25.1063 2.67508 25.3251C2.89388 25.5439 3.19062 25.6668 3.50004 25.6668H24.5C24.8095 25.6668 25.1062 25.5439 25.325 25.3251C25.5438 25.1063 25.6667 24.8096 25.6667 24.5002V3.50016C25.6667 3.19074 25.5438 2.894 25.325 2.6752C25.1062 2.45641 24.8095 2.3335 24.5 2.3335V2.3335ZM23.3334 4.66683V14.6885L21.8284 13.1718C21.7199 13.0625 21.5909 12.9757 21.4487 12.9165C21.3065 12.8572 21.1541 12.8267 21 12.8267C20.846 12.8267 20.6935 12.8572 20.5514 12.9165C20.4092 12.9757 20.2802 13.0625 20.1717 13.1718L16.485 16.8702L11.445 9.87016C11.3522 9.7228 11.2274 9.59811 11.0801 9.50525C10.9327 9.41238 10.7664 9.3537 10.5934 9.3335C10.4247 9.32328 10.2558 9.34806 10.0972 9.40629C9.93855 9.46451 9.7937 9.55492 9.67171 9.67183L4.66671 14.6885V4.66683H23.3334ZM4.66671 23.3335V17.9785L10.3484 12.2968L15.3884 19.2968C15.4862 19.4355 15.613 19.5512 15.7601 19.6359C15.9072 19.7205 16.071 19.772 16.24 19.7868H16.3334C16.4869 19.7877 16.6391 19.7583 16.7813 19.7002C16.9234 19.6422 17.0527 19.5566 17.1617 19.4485L21 15.6452L23.3334 17.9785V23.3335H4.66671Z" fill="#F0F0F0" fill-opacity="0.5"/>
<path d="M19.25 10.5C20.2165 10.5 21 9.7165 21 8.75C21 7.7835 20.2165 7 19.25 7C18.2835 7 17.5 7.7835 17.5 8.75C17.5 9.7165 18.2835 10.5 19.25 10.5Z" fill="#F0F0F0" fill-opacity="0.5"/>
</svg>
