<svg width="29" height="28" viewBox="0 0 29 28" fill="none" xmlns="http://www.w3.org/2000/svg">
<g clip-path="url(#clip0_614_4710)">
<g clip-path="url(#clip1_614_4710)">
<path d="M23.8333 25.6668H5.16667C4.85725 25.6668 4.5605 25.5439 4.34171 25.3251C4.12292 25.1063 4 24.8096 4 24.5002V3.50016C4 3.19074 4.12292 2.894 4.34171 2.6752C4.5605 2.45641 4.85725 2.3335 5.16667 2.3335H23.8333C24.1428 2.3335 24.4395 2.45641 24.6583 2.6752C24.8771 2.894 25 3.19074 25 3.50016V24.5002C25 24.8096 24.8771 25.1063 24.6583 25.3251C24.4395 25.5439 24.1428 25.6668 23.8333 25.6668ZM22.6667 23.3335V4.66683H6.33333V23.3335H22.6667ZM8.66667 7.00016H13.3333V11.6668H8.66667V7.00016ZM8.66667 14.0002H20.3333V16.3335H8.66667V14.0002ZM8.66667 18.6668H20.3333V21.0002H8.66667V18.6668ZM15.6667 8.16683H20.3333V10.5002H15.6667V8.16683Z" fill="#F0F0F0" fill-opacity="0.5"/>
</g>
</g>
<defs>
<clipPath id="clip0_614_4710">
<rect width="28" height="28" fill="white" transform="translate(0.5)"/>
</clipPath>
<clipPath id="clip1_614_4710">
<rect width="28" height="28" fill="white" transform="translate(0.5)"/>
</clipPath>
</defs>
</svg>
