<svg width="14" height="18" viewBox="0 0 14 18" fill="none" xmlns="http://www.w3.org/2000/svg">
<path d="M2.59229 17.9053H11.4077C13.126 17.9053 13.981 17.0337 13.981 15.3071V7.77002C13.981 6.69922 13.8564 6.23438 13.1924 5.55371L8.61865 0.896973C7.98779 0.249512 7.46484 0.108398 6.53516 0.108398H2.59229C0.882324 0.108398 0.019043 0.988281 0.019043 2.71484V15.3071C0.019043 17.042 0.874023 17.9053 2.59229 17.9053ZM2.65039 16.5688C1.79541 16.5688 1.35547 16.1123 1.35547 15.2822V2.73975C1.35547 1.91797 1.79541 1.44482 2.65869 1.44482H6.35254V6.26758C6.35254 7.31348 6.87549 7.82812 7.91309 7.82812H12.6445V15.2822C12.6445 16.1123 12.2046 16.5688 11.3413 16.5688H2.65039ZM8.0625 6.57471C7.73047 6.57471 7.60596 6.44189 7.60596 6.10986V1.70215L12.3872 6.57471H8.0625ZM10.0547 10.1191H3.75439C3.45557 10.1191 3.23145 10.3433 3.23145 10.6255C3.23145 10.916 3.45557 11.1401 3.75439 11.1401H10.0547C10.3452 11.1401 10.561 10.916 10.561 10.6255C10.561 10.3433 10.3452 10.1191 10.0547 10.1191ZM10.0547 13.0161H3.75439C3.45557 13.0161 3.23145 13.2485 3.23145 13.5391C3.23145 13.8213 3.45557 14.0371 3.75439 14.0371H10.0547C10.3452 14.0371 10.561 13.8213 10.561 13.5391C10.561 13.2485 10.3452 13.0161 10.0547 13.0161Z" fill="#F0F0F0"/>
</svg>
