<svg width="20" height="20" viewBox="0 0 20 20" fill="none" xmlns="http://www.w3.org/2000/svg">
<path d="M10 1.66699C8.23193 1.66699 6.53624 2.36937 5.286 3.61961C4.03575 4.86986 3.33337 6.56555 3.33337 8.33366C3.33337 12.8337 9.20837 17.917 9.45837 18.1337C9.60932 18.2628 9.80141 18.3337 10 18.3337C10.1987 18.3337 10.3908 18.2628 10.5417 18.1337C10.8334 17.917 16.6667 12.8337 16.6667 8.33366C16.6667 6.56555 15.9643 4.86986 14.7141 3.61961C13.4638 2.36937 11.7682 1.66699 10 1.66699ZM10 16.3753C8.22504 14.7087 5.00004 11.117 5.00004 8.33366C5.00004 7.00758 5.52682 5.73581 6.46451 4.79813C7.40219 3.86044 8.67396 3.33366 10 3.33366C11.3261 3.33366 12.5979 3.86044 13.5356 4.79813C14.4733 5.73581 15 7.00758 15 8.33366C15 11.117 11.775 14.717 10 16.3753ZM10 5.00033C9.34077 5.00033 8.6963 5.19582 8.14814 5.56209C7.59998 5.92836 7.17273 6.44896 6.92044 7.05805C6.66815 7.66713 6.60214 8.33736 6.73076 8.98396C6.85937 9.63056 7.17684 10.2245 7.64302 10.6907C8.10919 11.1569 8.70314 11.4743 9.34974 11.6029C9.99634 11.7316 10.6666 11.6656 11.2757 11.4133C11.8847 11.161 12.4053 10.7337 12.7716 10.1856C13.1379 9.6374 13.3334 8.99293 13.3334 8.33366C13.3334 7.4496 12.9822 6.60176 12.3571 5.97664C11.7319 5.35152 10.8841 5.00033 10 5.00033ZM10 10.0003C9.6704 10.0003 9.34817 9.90258 9.07409 9.71944C8.80001 9.53631 8.58639 9.27601 8.46024 8.97146C8.3341 8.66692 8.30109 8.33181 8.3654 8.00851C8.42971 7.68521 8.58844 7.38824 8.82153 7.15515C9.05462 6.92206 9.35159 6.76333 9.67489 6.69902C9.99819 6.63471 10.3333 6.66771 10.6378 6.79386C10.9424 6.92001 11.2027 7.13363 11.3858 7.40771C11.569 7.68179 11.6667 8.00402 11.6667 8.33366C11.6667 8.77569 11.4911 9.19961 11.1786 9.51217C10.866 9.82473 10.4421 10.0003 10 10.0003Z" fill="#F0F0F0" fill-opacity="0.5"/>
</svg>
