<svg width="71" height="70" viewBox="0 0 71 70" fill="none" xmlns="http://www.w3.org/2000/svg">
<path d="M35.5 5.83301C29.3116 5.83301 23.3767 8.29133 19.0008 12.6672C14.625 17.043 12.1667 22.978 12.1667 29.1663C12.1667 44.9163 32.7292 62.708 33.6042 63.4663C34.1325 63.9182 34.8048 64.1665 35.5 64.1665C36.1952 64.1665 36.8675 63.9182 37.3958 63.4663C38.4167 62.708 58.8333 44.9163 58.8333 29.1663C58.8333 22.978 56.375 17.043 51.9992 12.6672C47.6233 8.29133 41.6884 5.83301 35.5 5.83301ZM35.5 57.3122C29.2875 51.4788 18 38.908 18 29.1663C18 24.5251 19.8437 20.0739 23.1256 16.792C26.4075 13.5101 30.8587 11.6663 35.5 11.6663C40.1413 11.6663 44.5925 13.5101 47.8744 16.792C51.1563 20.0739 53 24.5251 53 29.1663C53 38.908 41.7125 51.508 35.5 57.3122ZM35.5 17.4997C33.1926 17.4997 30.9369 18.1839 29.0183 19.4659C27.0998 20.7478 25.6044 22.5699 24.7214 24.7017C23.8384 26.8335 23.6073 29.1793 24.0575 31.4424C24.5077 33.7055 25.6188 35.7843 27.2504 37.4159C28.882 39.0475 30.9608 40.1587 33.2239 40.6088C35.4871 41.059 37.8328 40.828 39.9646 39.9449C42.0964 39.0619 43.9185 37.5666 45.2005 35.648C46.4824 33.7294 47.1667 31.4738 47.1667 29.1663C47.1667 26.0722 45.9375 23.1047 43.7496 20.9168C41.5617 18.7288 38.5942 17.4997 35.5 17.4997ZM35.5 34.9997C34.3463 34.9997 33.2185 34.6576 32.2592 34.0166C31.2999 33.3756 30.5522 32.4646 30.1107 31.3987C29.6692 30.3328 29.5537 29.1599 29.7788 28.0283C30.0038 26.8968 30.5594 25.8574 31.3752 25.0416C32.191 24.2257 33.2304 23.6702 34.362 23.4451C35.4935 23.22 36.6664 23.3355 37.7323 23.777C38.7982 24.2186 39.7093 24.9662 40.3502 25.9255C40.9912 26.8848 41.3333 28.0126 41.3333 29.1663C41.3333 30.7134 40.7187 32.1972 39.6248 33.2911C38.5308 34.3851 37.0471 34.9997 35.5 34.9997Z" fill="#F0F0F0" fill-opacity="0.5"/>
</svg>
