<svg width="65" height="66" viewBox="0 0 65 66" fill="none" xmlns="http://www.w3.org/2000/svg">
<path d="M32.5 21.3337C26.0542 21.3337 20.8333 26.5545 20.8333 33.0003C20.8333 39.4462 26.0542 44.667 32.5 44.667C38.9458 44.667 44.1667 39.4462 44.1667 33.0003C44.1667 26.5545 38.9458 21.3337 32.5 21.3337ZM58.575 30.0837C57.2333 17.9212 47.5792 8.26699 35.4167 6.92533V3.83366C35.4167 2.22949 34.1042 0.916992 32.5 0.916992C30.8958 0.916992 29.5833 2.22949 29.5833 3.83366V6.92533C17.4208 8.26699 7.76666 17.9212 6.42499 30.0837H3.33332C1.72916 30.0837 0.416656 31.3962 0.416656 33.0003C0.416656 34.6045 1.72916 35.917 3.33332 35.917H6.42499C7.76666 48.0795 17.4208 57.7337 29.5833 59.0753V62.167C29.5833 63.7712 30.8958 65.0837 32.5 65.0837C34.1042 65.0837 35.4167 63.7712 35.4167 62.167V59.0753C47.5792 57.7337 57.2333 48.0795 58.575 35.917H61.6667C63.2708 35.917 64.5833 34.6045 64.5833 33.0003C64.5833 31.3962 63.2708 30.0837 61.6667 30.0837H58.575V30.0837ZM32.5 53.417C21.2125 53.417 12.0833 44.2878 12.0833 33.0003C12.0833 21.7128 21.2125 12.5837 32.5 12.5837C43.7875 12.5837 52.9167 21.7128 52.9167 33.0003C52.9167 44.2878 43.7875 53.417 32.5 53.417Z" fill="#F0F0F0" fill-opacity="0.5"/>
</svg>
