<svg width="71" height="70" viewBox="0 0 71 70" fill="none" xmlns="http://www.w3.org/2000/svg">
<g clip-path="url(#clip0_626_6431)">
<path d="M55.9167 2.91699H26.75C23.5417 2.91699 20.9167 5.54199 20.9167 8.75033V17.5003H26.75V11.667H55.9167V58.3337H26.75V52.5003H20.9167V61.2503C20.9167 64.4587 23.5417 67.0837 26.75 67.0837H55.9167C59.125 67.0837 61.75 64.4587 61.75 61.2503V8.75033C61.75 5.54199 59.125 2.91699 55.9167 2.91699ZM32 32.0837V27.7087C32 23.6253 27.9167 20.417 23.8334 20.417C19.75 20.417 15.6667 23.6253 15.6667 27.7087V32.0837C13.9167 32.0837 12.1667 33.8337 12.1667 35.5837V45.792C12.1667 47.8337 13.9167 49.5837 15.6667 49.5837H31.7084C33.75 49.5837 35.5 47.8337 35.5 46.0837V35.8753C35.5 33.8337 33.75 32.0837 32 32.0837ZM28.2084 32.0837H19.4584V27.7087C19.4584 25.3753 21.5 23.917 23.8334 23.917C26.1667 23.917 28.2084 25.3753 28.2084 27.7087V32.0837Z" fill="#F0F0F0" fill-opacity="0.5"/>
</g>
<defs>
<clipPath id="clip0_626_6431">
<rect width="70" height="70" fill="white" transform="translate(0.5)"/>
</clipPath>
</defs>
</svg>
