<svg width="12" height="17" viewBox="0 0 12 17" fill="none" xmlns="http://www.w3.org/2000/svg">
<path d="M2.19824 16.9507H9.80176C11.0469 16.9507 11.6611 16.3281 11.6611 14.9751V9.25586C11.6611 8.07715 11.188 7.45459 10.2251 7.32178V5.31299C10.2251 2.18359 8.1748 0.672852 6 0.672852C3.8252 0.672852 1.7749 2.18359 1.7749 5.31299V7.32178C0.812012 7.45459 0.338867 8.07715 0.338867 9.25586V14.9751C0.338867 16.3281 0.953125 16.9507 2.19824 16.9507ZM3.11133 5.13867C3.11133 3.05518 4.44775 1.95117 6 1.95117C7.55225 1.95117 8.88867 3.05518 8.88867 5.13867V7.29688H3.11133V5.13867ZM2.24805 15.7056C1.86621 15.7056 1.67529 15.5312 1.67529 15.0664V9.17285C1.67529 8.70801 1.86621 8.54199 2.24805 8.54199H9.76025C10.1421 8.54199 10.3247 8.70801 10.3247 9.17285V15.0664C10.3247 15.5312 10.1421 15.7056 9.76025 15.7056H2.24805Z" fill="#F0F0F0"/>
</svg>
