<svg width="86" height="86" viewBox="0 0 86 86" fill="none" xmlns="http://www.w3.org/2000/svg">
<rect width="86" height="86" rx="10" fill="#F0F0F0" fill-opacity="0.2"/>
<path d="M43 56.7061C45.7798 56.7061 48.4457 55.6018 50.4113 53.6362C52.377 51.6706 53.4812 49.0047 53.4812 46.2249V28.4874C53.4812 25.7076 52.377 23.0416 50.4113 21.076C48.4457 19.1104 45.7798 18.0061 43 18.0061C40.2202 18.0061 37.5542 19.1104 35.5886 21.076C33.623 23.0416 32.5187 25.7076 32.5187 28.4874V46.2249C32.5187 49.0047 33.623 51.6706 35.5886 53.6362C37.5542 55.6018 40.2202 56.7061 43 56.7061ZM35.7437 28.4874C35.7437 26.5629 36.5082 24.7172 37.869 23.3564C39.2299 21.9956 41.0755 21.2311 43 21.2311C44.9245 21.2311 46.7701 21.9956 48.1309 23.3564C49.4917 24.7172 50.2562 26.5629 50.2562 28.4874V46.2249C50.2562 48.1493 49.4917 49.995 48.1309 51.3558C46.7701 52.7166 44.9245 53.4811 43 53.4811C41.0755 53.4811 39.2299 52.7166 37.869 51.3558C36.5082 49.995 35.7437 48.1493 35.7437 46.2249V28.4874Z" fill="#F0F0F0"/>
<path d="M35.7437 28.4874C35.7437 26.5629 36.5082 24.7172 37.869 23.3564C39.2299 21.9956 41.0755 21.2311 43 21.2311C44.9245 21.2311 46.7701 21.9956 48.1309 23.3564C49.4917 24.7172 50.2562 26.5629 50.2562 28.4874V46.2249C50.2562 48.1493 49.4917 49.995 48.1309 51.3558C46.7701 52.7166 44.9245 53.4811 43 53.4811C41.0755 53.4811 39.2299 52.7166 37.869 51.3558C36.5082 49.995 35.7437 48.1493 35.7437 46.2249V28.4874Z" fill="#F0F0F0"/>
<path d="M57.5125 41.3875C57.0848 41.3875 56.6747 41.5573 56.3723 41.8597C56.0699 42.1621 55.9 42.5723 55.9 43V46.225C55.9 49.6462 54.5409 52.9274 52.1217 55.3466C49.7025 57.7658 46.4213 59.125 43 59.125C39.5787 59.125 36.2975 57.7658 33.8783 55.3466C31.4591 52.9274 30.1 49.6462 30.1 46.225V43C30.1 42.5723 29.9301 42.1621 29.6277 41.8597C29.3253 41.5573 28.9152 41.3875 28.4875 41.3875C28.0598 41.3875 27.6497 41.5573 27.3473 41.8597C27.0449 42.1621 26.875 42.5723 26.875 43V46.225C26.8749 50.2224 28.3597 54.0774 31.0413 57.0421C33.7229 60.0067 37.4101 61.8696 41.3875 62.2693V64.7687H37.3563C36.9286 64.7687 36.5184 64.9386 36.216 65.241C35.9136 65.5434 35.7438 65.9535 35.7438 66.3812C35.7438 66.8089 35.9136 67.219 36.216 67.5214C36.5184 67.8238 36.9286 67.9937 37.3563 67.9937H48.6438C49.0714 67.9937 49.4816 67.8238 49.784 67.5214C50.0864 67.219 50.2563 66.8089 50.2563 66.3812C50.2563 65.9535 50.0864 65.5434 49.784 65.241C49.4816 64.9386 49.0714 64.7687 48.6438 64.7687H44.6125V62.2693C48.5899 61.8696 52.2771 60.0067 54.9587 57.0421C57.6403 54.0774 59.1251 50.2224 59.125 46.225V43C59.125 42.5723 58.9551 42.1621 58.6527 41.8597C58.3503 41.5573 57.9402 41.3875 57.5125 41.3875Z" fill="#F0F0F0"/>
</svg>
