<svg width="318" height="72" viewBox="0 0 318 72" fill="none" xmlns="http://www.w3.org/2000/svg">
<g filter="url(#filter0_d_851_21593)">
<rect x="-27" y="2" width="335" height="52" rx="12" fill="#242526" shape-rendering="crispEdges"/>
<g clip-path="url(#clip0_851_21593)">
<path d="M-2.66667 36H0V20H-2.66667V36ZM2.66667 41.3333H5.33333V14.6667H2.66667V41.3333ZM-8 30.6667H-5.33333V25.3333H-8V30.6667ZM8 36H10.6667V20H8V36ZM13.3333 25.3333V30.6667H16V25.3333H13.3333Z" fill="#F0F0F0" fill-opacity="0.5"/>
</g>
<path d="M31.1621 34H32.5566V24.7446H32.6064L36.4331 34H37.6948L41.5215 24.7446H41.5713V34H42.9658V22.022H41.2393L37.0889 32.1157H37.0391L32.8887 22.022H31.1621V34ZM45.896 36.9053C47.4565 36.9053 48.2119 36.1914 48.8262 34.5396L52.1963 25.3672H50.6772L48.2866 32.5557H48.2534L45.8711 25.3672H44.3271L47.5312 34.0083L47.3569 34.498C47.0083 35.4775 46.502 35.71 45.5889 35.71C45.4146 35.71 45.2485 35.6851 45.124 35.6602V36.8389C45.3066 36.8721 45.6138 36.9053 45.896 36.9053ZM56.77 34H58.2476L62.6636 22.022H61.0947L57.5254 32.207H57.4922L53.9229 22.022H52.354L56.77 34ZM66.2246 34.166C68.6069 34.166 70.2173 32.4395 70.2173 29.6836V29.667C70.2173 26.9111 68.5986 25.2012 66.2163 25.2012C63.834 25.2012 62.2236 26.9194 62.2236 29.667V29.6836C62.2236 32.4312 63.8257 34.166 66.2246 34.166ZM66.2329 32.8877C64.7056 32.8877 63.7012 31.7173 63.7012 29.6836V29.667C63.7012 27.6499 64.7139 26.4795 66.2163 26.4795C67.7437 26.4795 68.7397 27.6416 68.7397 29.667V29.6836C68.7397 31.709 67.752 32.8877 66.2329 32.8877ZM72.4917 23.9062C72.998 23.9062 73.3965 23.4995 73.3965 23.0015C73.3965 22.4951 72.998 22.0967 72.4917 22.0967C71.9937 22.0967 71.5869 22.4951 71.5869 23.0015C71.5869 23.4995 71.9937 23.9062 72.4917 23.9062ZM71.7695 34H73.2139V25.3672H71.7695V34ZM78.7588 34.166C80.7095 34.166 82.1289 32.896 82.3613 31.2524L82.3696 31.1943H80.9502L80.9336 31.2607C80.6929 32.2236 79.9375 32.8877 78.7588 32.8877C77.2646 32.8877 76.2354 31.7007 76.2354 29.6919V29.6836C76.2354 27.7246 77.2397 26.4795 78.7422 26.4795C80.0122 26.4795 80.7095 27.2432 80.9253 28.1064L80.9419 28.1729H82.353L82.3447 28.1064C82.1621 26.6289 80.8921 25.2012 78.7422 25.2012C76.3433 25.2012 74.7578 26.9443 74.7578 29.667V29.6753C74.7578 32.4229 76.3101 34.166 78.7588 34.166ZM87.2505 34.166C89.1348 34.166 90.5459 33.0371 90.8281 31.6094L90.8447 31.5264H89.4253L89.4004 31.6011C89.1514 32.3398 88.3794 32.8877 87.2837 32.8877C85.748 32.8877 84.7686 31.8501 84.7354 30.0737H90.9526V29.5425C90.9526 26.9526 89.5166 25.2012 87.1592 25.2012C84.8018 25.2012 83.2744 27.0356 83.2744 29.7085V29.7168C83.2744 32.4312 84.7686 34.166 87.2505 34.166ZM87.1509 26.4795C88.4126 26.4795 89.3423 27.2681 89.4834 28.9448H84.7603C84.918 27.3345 85.8975 26.4795 87.1509 26.4795ZM92.6377 34H99.9092V32.6553H94.1318V22.022H92.6377V34ZM102.142 23.9062C102.648 23.9062 103.047 23.4995 103.047 23.0015C103.047 22.4951 102.648 22.0967 102.142 22.0967C101.644 22.0967 101.237 22.4951 101.237 23.0015C101.237 23.4995 101.644 23.9062 102.142 23.9062ZM101.42 34H102.864V25.3672H101.42V34ZM104.832 34H106.276V28.9199C106.276 27.4507 107.164 26.4795 108.525 26.4795C109.854 26.4795 110.509 27.2515 110.509 28.6543V34H111.954V28.397C111.954 26.4297 110.858 25.2012 108.965 25.2012C107.654 25.2012 106.774 25.7905 106.309 26.5957H106.276V25.3672H104.832V34ZM117.349 34.166C119.233 34.166 120.645 33.0371 120.927 31.6094L120.943 31.5264H119.524L119.499 31.6011C119.25 32.3398 118.478 32.8877 117.382 32.8877C115.847 32.8877 114.867 31.8501 114.834 30.0737H121.051V29.5425C121.051 26.9526 119.615 25.2012 117.258 25.2012C114.9 25.2012 113.373 27.0356 113.373 29.7085V29.7168C113.373 32.4312 114.867 34.166 117.349 34.166ZM117.25 26.4795C118.511 26.4795 119.441 27.2681 119.582 28.9448H114.859C115.017 27.3345 115.996 26.4795 117.25 26.4795Z" fill="#F0F0F0"/>
<g clip-path="url(#clip1_851_21593)">
<path d="M277 41.3333C269.636 41.3333 263.667 35.364 263.667 28C263.667 20.636 269.636 14.6667 277 14.6667C284.364 14.6667 290.333 20.636 290.333 28C290.333 35.364 284.364 41.3333 277 41.3333ZM275.671 33.3333L285.097 23.9053L283.212 22.02L275.671 29.5627L271.899 25.7907L270.013 27.676L275.671 33.3333Z" fill="#3DCE4B"/>
</g>
<rect x="-26.5" y="2.5" width="334" height="51" rx="11.5" stroke="#1C061E" stroke-opacity="0.36" shape-rendering="crispEdges"/>
</g>
<defs>
<filter id="filter0_d_851_21593" x="-37" y="0" width="355" height="72" filterUnits="userSpaceOnUse" color-interpolation-filters="sRGB">
<feFlood flood-opacity="0" result="BackgroundImageFix"/>
<feColorMatrix in="SourceAlpha" type="matrix" values="0 0 0 0 0 0 0 0 0 0 0 0 0 0 0 0 0 0 127 0" result="hardAlpha"/>
<feOffset dy="8"/>
<feGaussianBlur stdDeviation="5"/>
<feComposite in2="hardAlpha" operator="out"/>
<feColorMatrix type="matrix" values="0 0 0 0 0 0 0 0 0 0 0 0 0 0 0 0 0 0 0.25 0"/>
<feBlend mode="normal" in2="BackgroundImageFix" result="effect1_dropShadow_851_21593"/>
<feBlend mode="normal" in="SourceGraphic" in2="effect1_dropShadow_851_21593" result="shape"/>
</filter>
<clipPath id="clip0_851_21593">
<rect width="32" height="32" fill="white" transform="translate(-12 12)"/>
</clipPath>
<clipPath id="clip1_851_21593">
<rect width="32" height="32" fill="white" transform="translate(261 12)"/>
</clipPath>
</defs>
</svg>
