<svg width="27" height="27" viewBox="0 0 27 27" fill="none" xmlns="http://www.w3.org/2000/svg">
<path d="M23.625 13.5002C23.3266 13.5002 23.0405 13.6187 22.8295 13.8297C22.6185 14.0407 22.5 14.3268 22.5 14.6252V21.3752C22.5 21.6735 22.3815 21.9597 22.1705 22.1707C21.9595 22.3816 21.6734 22.5002 21.375 22.5002H5.625C5.32663 22.5002 5.04048 22.3816 4.82951 22.1707C4.61853 21.9597 4.5 21.6735 4.5 21.3752V5.62518C4.5 5.32681 4.61853 5.04066 4.82951 4.82968C5.04048 4.6187 5.32663 4.50018 5.625 4.50018H12.375C12.6734 4.50018 12.9595 4.38165 13.1705 4.17067C13.3815 3.95969 13.5 3.67354 13.5 3.37518C13.5 3.07681 13.3815 2.79066 13.1705 2.57968C12.9595 2.3687 12.6734 2.25018 12.375 2.25018H5.625C4.72989 2.25018 3.87145 2.60575 3.23851 3.23869C2.60558 3.87163 2.25 4.73007 2.25 5.62518V21.3752C2.25 22.2703 2.60558 23.1287 3.23851 23.7617C3.87145 24.3946 4.72989 24.7502 5.625 24.7502H21.375C22.2701 24.7502 23.1286 24.3946 23.7615 23.7617C24.3944 23.1287 24.75 22.2703 24.75 21.3752V14.6252C24.75 14.3268 24.6315 14.0407 24.4205 13.8297C24.2095 13.6187 23.9234 13.5002 23.625 13.5002ZM6.75 14.3552V19.1252C6.75 19.4235 6.86853 19.7097 7.07951 19.9207C7.29048 20.1316 7.57663 20.2502 7.875 20.2502H12.645C12.7931 20.251 12.9398 20.2227 13.0769 20.1667C13.214 20.1107 13.3386 20.0282 13.4437 19.9239L21.2288 12.1277L24.4237 9.00018C24.5292 8.89559 24.6129 8.77117 24.67 8.63407C24.7271 8.49698 24.7565 8.34994 24.7565 8.20143C24.7565 8.05291 24.7271 7.90587 24.67 7.76878C24.6129 7.63168 24.5292 7.50726 24.4237 7.40268L19.6537 2.57643C19.5492 2.47098 19.4247 2.38729 19.2876 2.33017C19.1506 2.27306 19.0035 2.24365 18.855 2.24365C18.7065 2.24365 18.5594 2.27306 18.4224 2.33017C18.2853 2.38729 18.1608 2.47098 18.0562 2.57643L14.8837 5.76018L7.07625 13.5564C6.97198 13.6615 6.88949 13.7862 6.83351 13.9233C6.77752 14.0603 6.74914 14.2071 6.75 14.3552V14.3552ZM18.855 4.96143L22.0388 8.14518L20.4413 9.74268L17.2575 6.55893L18.855 4.96143ZM9 14.8164L15.6713 8.14518L18.855 11.3289L12.1837 18.0002H9V14.8164Z" fill="#F0F0F0" fill-opacity="0.5"/>
</svg>
