<svg width="20" height="20" viewBox="0 0 20 20" fill="none" xmlns="http://www.w3.org/2000/svg">
<g clip-path="url(#clip0_1303_9158)">
<path d="M15.8334 0.833008H7.50004C6.58337 0.833008 5.83337 1.58301 5.83337 2.49967V4.99967H7.50004V3.33301H15.8334V16.6663H7.50004V14.9997H5.83337V17.4997C5.83337 18.4163 6.58337 19.1663 7.50004 19.1663H15.8334C16.75 19.1663 17.5 18.4163 17.5 17.4997V2.49967C17.5 1.58301 16.75 0.833008 15.8334 0.833008ZM9.00004 9.16634V7.91634C9.00004 6.74967 7.83337 5.83301 6.66671 5.83301C5.50004 5.83301 4.33337 6.74967 4.33337 7.91634V9.16634C3.83337 9.16634 3.33337 9.66634 3.33337 10.1663V13.083C3.33337 13.6663 3.83337 14.1663 4.33337 14.1663H8.91671C9.50004 14.1663 10 13.6663 10 13.1663V10.2497C10 9.66634 9.50004 9.16634 9.00004 9.16634ZM7.91671 9.16634H5.41671V7.91634C5.41671 7.24967 6.00004 6.83301 6.66671 6.83301C7.33337 6.83301 7.91671 7.24967 7.91671 7.91634V9.16634Z" fill="#F0F0F0" fill-opacity="0.5"/>
</g>
<defs>
<clipPath id="clip0_1303_9158">
<rect width="20" height="20" fill="white"/>
</clipPath>
</defs>
</svg>
