<svg width="61" height="71" viewBox="0 0 61 71" fill="none" xmlns="http://www.w3.org/2000/svg">
<path d="M41.8167 23.9429C41.9461 23.8047 42.1145 23.7123 42.2979 23.6787C42.4813 23.6451 42.6702 23.672 42.8379 23.7557C43.0055 23.8394 43.1433 23.9756 43.2315 24.1448C43.3197 24.3139 43.3538 24.5075 43.3291 24.6979C42.9512 28.1734 42.7603 32.2659 44.2179 35.6955C46.4934 38.1099 47.7073 43.1599 45.8052 46.8391L43.5816 38.275C43.6243 37.7165 44.1024 36.5299 43.5688 36.0878C40.6488 33.1025 38.248 27.5433 41.8167 23.9429ZM18.2083 42.4399C19.2204 41.9221 20.7588 42.5927 21.4465 43.5297C22.2446 44.8158 20.1111 45.8328 19.1171 45.9042C18.7078 45.9325 18.3017 45.8137 17.9677 45.568C17.6338 45.3222 17.3928 44.9647 17.2857 44.5564C17.1785 44.148 17.2119 43.7139 17.3801 43.328C17.5483 42.9422 17.841 42.6283 18.2083 42.4399ZM18.9797 49.1113C18.9861 48.7519 19.129 48.4095 19.3776 48.1576C19.6263 47.9058 19.9609 47.7647 20.3094 47.7647C20.6579 47.7647 20.9925 47.9058 21.2411 48.1577C21.4898 48.4095 21.6327 48.7519 21.639 49.1113C21.6327 49.4707 21.4898 49.8131 21.2411 50.065C20.9924 50.3168 20.6578 50.4579 20.3093 50.4579C19.9608 50.4579 19.6263 50.3167 19.3776 50.0649C19.129 49.8131 18.9861 49.4706 18.9797 49.1113ZM34.6701 56.9648C34.4443 57.0236 34.2052 56.9883 34.0044 56.8667C33.8036 56.7451 33.6573 56.5469 33.597 56.3149C33.5367 56.0829 33.5674 55.8358 33.6823 55.6269C33.7973 55.4181 33.9872 55.2642 34.2112 55.1987C34.4371 55.1398 34.6763 55.1749 34.8773 55.2965C35.0782 55.4181 35.2246 55.6164 35.2849 55.8485C35.3452 56.0805 35.3145 56.3278 35.1994 56.5367C35.0844 56.7456 34.8942 56.8994 34.6701 56.9648ZM32.9334 66.0726C32.6668 65.2511 32.1236 63.6363 31.3627 61.6579L44.6948 57.9728C45.2815 60.1038 46.2726 62.0933 47.6106 63.8262C45.4615 64.7783 38.0393 66.6944 32.9334 66.0726Z" fill="#F0F0F0" fill-opacity="0.5"/>
<path fill-rule="evenodd" clip-rule="evenodd" d="M46.4069 57.5011C47.1356 57.2681 48.4572 57.2121 48.2017 56.0604L46.4665 49.3856C47.9271 47.1727 48.6388 44.5246 48.4912 41.8519C48.3436 39.1793 47.3449 36.6316 45.6502 34.6041C44.7852 31.4631 44.5927 28.1657 45.0863 24.9404C45.291 21.5429 41.3786 20.6929 39.7813 23.6319L37.1923 13.676C37.13 13.4427 36.9811 13.2441 36.7779 13.1232C36.5747 13.0023 36.3334 12.9687 36.1064 13.0298L27.4135 15.4352L11.9364 19.6688C11.4148 19.8115 11.1011 20.3429 11.2282 20.8685L16.2726 41.7225C15.9167 42.1658 15.6664 42.689 15.5421 43.2502C15.4177 43.8113 15.4226 44.3947 15.5565 44.9535C15.6903 45.5123 15.9494 46.031 16.3128 46.4678C16.6763 46.9047 17.134 47.2475 17.6492 47.4689C17.4004 47.9073 17.2556 48.4003 17.2268 48.9074C17.1979 49.4146 17.2858 49.9216 17.4832 50.387C17.6805 50.8525 17.9818 51.2632 18.3625 51.5857C18.7431 51.9081 19.1923 52.1331 19.6733 52.2424L22.5115 63.1621C22.5734 63.3958 22.7222 63.5948 22.9257 63.7158C23.1291 63.8368 23.3706 63.8701 23.5977 63.8084L29.6371 62.1353C30.409 64.1469 30.9003 65.5359 31.4309 67.2143C31.4828 67.385 31.5822 67.5362 31.7169 67.6491C31.8515 67.7619 32.0154 67.8314 32.188 67.8488C33.2046 67.9536 34.2079 68 35.1884 68C40.0903 67.9459 44.9384 66.9389 49.4784 65.0318C49.6086 64.9704 49.7226 64.8776 49.8107 64.7612C49.8988 64.6448 49.9585 64.5083 49.9848 64.3632C50.0111 64.2181 50.0032 64.0685 49.9617 63.9272C49.9202 63.7859 49.8464 63.6569 49.7465 63.5512C48.1672 61.8489 47.02 59.7707 46.4069 57.5011ZM42.2979 23.6787C42.1145 23.7123 41.9461 23.8047 41.8167 23.9429C38.248 27.5433 40.6488 33.1025 43.5688 36.0878C44.1024 36.5299 43.6243 37.7165 43.5816 38.275L45.8052 46.8391C47.7073 43.1599 46.4934 38.1099 44.2179 35.6955C42.7603 32.2659 42.9512 28.1734 43.3291 24.6979C43.3538 24.5075 43.3197 24.3139 43.2315 24.1448C43.1433 23.9756 43.0055 23.8394 42.8379 23.7557C42.6702 23.672 42.4813 23.6451 42.2979 23.6787ZM21.4465 43.5297C20.7588 42.5927 19.2204 41.9221 18.2083 42.4399C17.841 42.6283 17.5483 42.9422 17.3801 43.328C17.2119 43.7139 17.1785 44.148 17.2857 44.5564C17.3928 44.9647 17.6338 45.3222 17.9677 45.568C18.3017 45.8137 18.7078 45.9325 19.1171 45.9042C20.1111 45.8328 22.2446 44.8158 21.4465 43.5297ZM19.3776 48.1576C19.129 48.4095 18.9861 48.7519 18.9797 49.1113C18.9861 49.4706 19.129 49.8131 19.3776 50.0649C19.6263 50.3167 19.9608 50.4579 20.3093 50.4579C20.6578 50.4579 20.9924 50.3168 21.2411 50.065C21.4898 49.8131 21.6327 49.4707 21.639 49.1113C21.6327 48.7519 21.4898 48.4095 21.2411 48.1577C20.9925 47.9058 20.6579 47.7647 20.3094 47.7647C19.9609 47.7647 19.6263 47.9058 19.3776 48.1576ZM22.7535 51.0482C22.4195 51.5014 21.9746 51.8548 21.4645 52.0721L23.9943 61.8052C26.7443 61.0428 32.3428 59.4931 35.0772 58.7382C34.398 58.9077 33.6814 58.7944 33.0826 58.4227C32.4839 58.0511 32.0513 57.451 31.8785 56.7527C31.7057 56.0543 31.8067 55.3138 32.1597 54.6917C32.5126 54.0696 33.089 53.6161 33.7639 53.4293C34.4389 53.2425 35.158 53.3375 35.7655 53.6938C36.3729 54.05 36.8198 54.6389 37.0093 55.3326C37.1987 56.0264 37.1155 56.7692 36.7776 57.4001C36.4397 58.031 35.8743 58.4991 35.2041 58.7031C35.8808 58.5164 45.8656 55.7547 46.2594 55.6493C44.9353 50.5622 42.4899 41.1333 41.1541 35.9999C39.2087 33.5119 37.4393 29.5027 38.579 26.0669L35.7096 15.0328L29.0993 16.8619L13.2161 21.2963L17.9677 40.6869C18.6803 40.5981 20.523 40.3913 21.2314 41.0405C23.4704 42.0967 24.2911 44.8746 22.117 46.5205C22.562 46.8572 22.9122 47.31 23.1315 47.8324C23.3508 48.3548 23.4314 48.928 23.365 49.4931C23.2986 50.0583 23.0875 50.595 22.7535 51.0482ZM34.0044 56.8667C34.2052 56.9883 34.4443 57.0236 34.6701 56.9648C34.8942 56.8994 35.0844 56.7456 35.1994 56.5367C35.3145 56.3278 35.3452 56.0805 35.2849 55.8485C35.2246 55.6164 35.0782 55.4181 34.8773 55.2965C34.6763 55.1749 34.4371 55.1398 34.2112 55.1987C33.9872 55.2642 33.7973 55.4181 33.6823 55.6269C33.5674 55.8358 33.5367 56.0829 33.597 56.3149C33.6573 56.5469 33.8036 56.7451 34.0044 56.8667ZM31.3627 61.6579C32.1236 63.6363 32.6668 65.2511 32.9334 66.0726C38.0393 66.6944 45.4615 64.7783 47.6106 63.8262C46.2726 62.0933 45.2815 60.1038 44.6948 57.9728L31.3627 61.6579Z" fill="#F0F0F0" fill-opacity="0.5"/>
<path d="M40.8375 12.9889C41.9421 11.0758 41.3424 8.66162 39.498 7.59677C37.6537 6.53193 35.2631 7.21963 34.1585 9.1328" stroke="#F0F0F0" stroke-opacity="0.5" stroke-linecap="round"/>
<path d="M44.3608 12.4515C46.2396 9.19723 45.2195 5.09084 42.0823 3.27958C38.9451 1.46832 34.8788 2.63807 33 5.8923" stroke="#F0F0F0" stroke-opacity="0.5" stroke-width="1.70096" stroke-linecap="round"/>
</svg>
