<svg width="269" height="72" viewBox="0 0 269 72" fill="none" xmlns="http://www.w3.org/2000/svg">
<g filter="url(#filter0_d_851_21598)">
<rect x="10" y="2" width="335" height="52" rx="12" fill="#242526" shape-rendering="crispEdges"/>
<g clip-path="url(#clip0_851_21598)">
<path d="M33.4992 19.3056C31.704 21.096 23.856 32.2896 30.6368 39.0688C37.4144 45.8496 48.6048 38 50.4032 36.2064C52.1968 34.416 49.8672 29.1744 45.2 24.5072C40.5296 19.8368 35.2944 17.5056 33.4992 19.3056ZM48.3216 34.6496C47.7904 35.1744 43.6896 33.9184 39.7392 29.9648C35.792 26.0144 34.5296 21.912 35.0608 21.384C35.5856 20.8528 39.6912 22.1152 43.6368 26.0656C47.5904 30.0128 48.8496 34.1184 48.3216 34.6496ZM49.6944 21.5712L52.7408 18.5216C53.0408 18.2216 53.2093 17.8147 53.2093 17.3904C53.2093 16.9661 53.0408 16.5592 52.7408 16.2592C52.4408 15.9592 52.0339 15.7906 51.6096 15.7906C51.1853 15.7906 50.7784 15.9592 50.4784 16.2592L47.432 19.3088C47.132 19.6088 46.9634 20.0157 46.9634 20.44C46.9634 20.6501 47.0048 20.8581 47.0852 21.0522C47.1656 21.2463 47.2834 21.4226 47.432 21.5712C47.5805 21.7198 47.7569 21.8376 47.951 21.918C48.1451 21.9984 48.3531 22.0398 48.5632 22.0398C48.9875 22.0398 49.3944 21.8712 49.6944 21.5712ZM42.7984 18.08C42.982 18.1821 43.184 18.2471 43.3927 18.2711C43.6015 18.2952 43.8129 18.2779 44.015 18.2203C44.217 18.1626 44.4058 18.0658 44.5704 17.9352C44.735 17.8046 44.8723 17.6428 44.9744 17.4592L46.7136 14.3776C46.9198 14.0067 46.9703 13.5691 46.8539 13.161C46.7374 12.7529 46.4637 12.4078 46.0928 12.2016C45.7219 11.9954 45.2843 11.9449 44.8762 12.0613C44.4681 12.1778 44.123 12.4515 43.9168 12.8224L42.1776 15.904C42.0755 16.0876 42.0105 16.2896 41.9864 16.4983C41.9624 16.7071 41.9797 16.9185 42.0373 17.1206C42.0949 17.3226 42.1918 17.5114 42.3224 17.676C42.453 17.8406 42.6147 17.9779 42.7984 18.08ZM56.7952 22.9056C56.6932 22.7218 56.556 22.5599 56.3914 22.4292C56.2268 22.2985 56.0381 22.2015 55.836 22.1439C55.6338 22.0862 55.4223 22.069 55.2135 22.0932C55.0047 22.1173 54.8028 22.1825 54.6192 22.2848L51.5152 23.9824C51.3316 24.0845 51.1698 24.2218 51.0392 24.3864C50.9087 24.551 50.8118 24.7398 50.7541 24.9418C50.6965 25.1439 50.6792 25.3553 50.7033 25.5641C50.7273 25.7728 50.7923 25.9748 50.8944 26.1584C50.9965 26.342 51.1338 26.5038 51.2984 26.6344C51.463 26.7649 51.6518 26.8618 51.8538 26.9195C52.0559 26.9771 52.2673 26.9944 52.4761 26.9703C52.6848 26.9463 52.8867 26.8813 53.0704 26.7792L56.1744 25.0816C56.358 24.9795 56.5198 24.8422 56.6504 24.6776C56.7809 24.513 56.8778 24.3242 56.9355 24.1222C56.9931 23.9201 57.0104 23.7087 56.9863 23.4999C56.9623 23.2912 56.8973 23.0892 56.7952 22.9056Z" fill="#F0F0F0" fill-opacity="0.5"/>
</g>
<path d="M68.3716 34H69.8657V29.7251H72.6382C74.8877 29.7251 76.4814 28.1396 76.4814 25.8652V25.8486C76.4814 23.5742 74.8877 22.022 72.6382 22.022H68.3716V34ZM72.2563 23.3501C73.9663 23.3501 74.9541 24.2881 74.9541 25.8652V25.8818C74.9541 27.459 73.9663 28.397 72.2563 28.397H69.8657V23.3501H72.2563ZM81.1382 34.166C83.5205 34.166 85.1309 32.4395 85.1309 29.6836V29.667C85.1309 26.9111 83.5122 25.2012 81.1299 25.2012C78.7476 25.2012 77.1372 26.9194 77.1372 29.667V29.6836C77.1372 32.4312 78.7393 34.166 81.1382 34.166ZM81.1465 32.8877C79.6191 32.8877 78.6147 31.7173 78.6147 29.6836V29.667C78.6147 27.6499 79.6274 26.4795 81.1299 26.4795C82.6572 26.4795 83.6533 27.6416 83.6533 29.667V29.6836C83.6533 31.709 82.6655 32.8877 81.1465 32.8877ZM86.6665 34H88.1108V22.022H86.6665V34ZM90.875 23.9062C91.3813 23.9062 91.7798 23.4995 91.7798 23.0015C91.7798 22.4951 91.3813 22.0967 90.875 22.0967C90.377 22.0967 89.9702 22.4951 89.9702 23.0015C89.9702 23.4995 90.377 23.9062 90.875 23.9062ZM90.1528 34H91.5972V25.3672H90.1528V34ZM97.1421 34.166C99.0928 34.166 100.512 32.896 100.745 31.2524L100.753 31.1943H99.3335L99.3169 31.2607C99.0762 32.2236 98.3208 32.8877 97.1421 32.8877C95.6479 32.8877 94.6187 31.7007 94.6187 29.6919V29.6836C94.6187 27.7246 95.623 26.4795 97.1255 26.4795C98.3955 26.4795 99.0928 27.2432 99.3086 28.1064L99.3252 28.1729H100.736L100.728 28.1064C100.545 26.6289 99.2754 25.2012 97.1255 25.2012C94.7266 25.2012 93.1411 26.9443 93.1411 29.667V29.6753C93.1411 32.4229 94.6934 34.166 97.1421 34.166ZM105.634 34.166C107.518 34.166 108.929 33.0371 109.211 31.6094L109.228 31.5264H107.809L107.784 31.6011C107.535 32.3398 106.763 32.8877 105.667 32.8877C104.131 32.8877 103.152 31.8501 103.119 30.0737H109.336V29.5425C109.336 26.9526 107.9 25.2012 105.542 25.2012C103.185 25.2012 101.658 27.0356 101.658 29.7085V29.7168C101.658 32.4312 103.152 34.166 105.634 34.166ZM105.534 26.4795C106.796 26.4795 107.726 27.2681 107.867 28.9448H103.144C103.301 27.3345 104.281 26.4795 105.534 26.4795ZM116.807 34.166C117.96 34.166 118.998 33.5435 119.504 32.5972H119.538V34H120.982V28.0317C120.982 26.3052 119.704 25.2012 117.662 25.2012C115.628 25.2012 114.391 26.3467 114.267 27.7661L114.258 27.8574H115.653L115.669 27.7827C115.835 27.0107 116.533 26.4795 117.645 26.4795C118.849 26.4795 119.538 27.1187 119.538 28.1729V28.895L117.064 29.0361C115.08 29.1523 113.935 30.0737 113.935 31.543V31.5596C113.935 33.1284 115.088 34.166 116.807 34.166ZM115.412 31.5596V31.543C115.412 30.7378 116.076 30.2231 117.23 30.1567L119.538 30.0156V30.7212C119.538 31.9746 118.492 32.9126 117.13 32.9126C116.093 32.9126 115.412 32.3896 115.412 31.5596ZM122.891 34H124.335V22.022H122.891V34ZM128.81 34.166C129.963 34.166 131.001 33.5435 131.507 32.5972H131.541V34H132.985V28.0317C132.985 26.3052 131.707 25.2012 129.665 25.2012C127.631 25.2012 126.394 26.3467 126.27 27.7661L126.261 27.8574H127.656L127.672 27.7827C127.838 27.0107 128.536 26.4795 129.648 26.4795C130.852 26.4795 131.541 27.1187 131.541 28.1729V28.895L129.067 29.0361C127.083 29.1523 125.938 30.0737 125.938 31.543V31.5596C125.938 33.1284 127.091 34.166 128.81 34.166ZM127.415 31.5596V31.543C127.415 30.7378 128.079 30.2231 129.233 30.1567L131.541 30.0156V30.7212C131.541 31.9746 130.495 32.9126 129.133 32.9126C128.096 32.9126 127.415 32.3896 127.415 31.5596ZM134.819 34H136.264V28.6709C136.264 27.3594 136.994 26.5791 138.115 26.5791C138.463 26.5791 138.771 26.6206 138.887 26.6621V25.2593C138.771 25.2427 138.555 25.2012 138.306 25.2012C137.334 25.2012 136.587 25.832 136.297 26.8281H136.264V25.3672H134.819V34ZM140.065 34H141.51V28.5879C141.51 27.3843 142.34 26.4795 143.485 26.4795C144.556 26.4795 145.253 27.1685 145.253 28.2144V34H146.698V28.5132C146.698 27.3345 147.503 26.4795 148.648 26.4795C149.786 26.4795 150.441 27.1851 150.441 28.3721V34H151.886V28.04C151.886 26.3218 150.782 25.2012 149.072 25.2012C147.86 25.2012 146.847 25.8237 146.366 26.8613H146.333C145.959 25.8071 145.087 25.2012 143.909 25.2012C142.796 25.2012 141.933 25.7739 141.543 26.6289H141.51V25.3672H140.065V34Z" fill="#F0F0F0"/>
<rect x="10.5" y="2.5" width="334" height="51" rx="11.5" stroke="#1C061E" stroke-opacity="0.36" shape-rendering="crispEdges"/>
</g>
<defs>
<filter id="filter0_d_851_21598" x="0" y="0" width="355" height="72" filterUnits="userSpaceOnUse" color-interpolation-filters="sRGB">
<feFlood flood-opacity="0" result="BackgroundImageFix"/>
<feColorMatrix in="SourceAlpha" type="matrix" values="0 0 0 0 0 0 0 0 0 0 0 0 0 0 0 0 0 0 127 0" result="hardAlpha"/>
<feOffset dy="8"/>
<feGaussianBlur stdDeviation="5"/>
<feComposite in2="hardAlpha" operator="out"/>
<feColorMatrix type="matrix" values="0 0 0 0 0 0 0 0 0 0 0 0 0 0 0 0 0 0 0.25 0"/>
<feBlend mode="normal" in2="BackgroundImageFix" result="effect1_dropShadow_851_21598"/>
<feBlend mode="normal" in="SourceGraphic" in2="effect1_dropShadow_851_21598" result="shape"/>
</filter>
<clipPath id="clip0_851_21598">
<rect width="32" height="32" fill="white" transform="translate(25 12)"/>
</clipPath>
</defs>
</svg>
