<svg width="10" height="16" viewBox="0 0 10 16" fill="none" xmlns="http://www.w3.org/2000/svg">
<path d="M4.59326 11.4185C5.17432 11.4185 5.43994 11.02 5.43994 10.4888V10.2065C5.45654 9.11084 5.84668 8.6543 7.1748 7.74121C8.60254 6.77832 9.50732 5.66602 9.50732 4.06396C9.50732 1.57373 7.48193 0.145996 4.9585 0.145996C3.08252 0.145996 1.43896 1.03418 0.733398 2.63623C0.559082 3.02637 0.484375 3.4082 0.484375 3.72363C0.484375 4.19678 0.758301 4.52881 1.26465 4.52881C1.68799 4.52881 1.97021 4.27979 2.09473 3.87305C2.51807 2.2959 3.56396 1.69824 4.90039 1.69824C6.51904 1.69824 7.78906 2.61133 7.78906 4.05566C7.78906 5.24268 7.05029 5.90674 5.98779 6.65381C4.68457 7.55859 3.72998 8.52979 3.72998 9.99072V10.5137C3.72998 11.0449 4.02051 11.4185 4.59326 11.4185ZM4.59326 15.959C5.25732 15.959 5.78027 15.4277 5.78027 14.7803C5.78027 14.1245 5.25732 13.6016 4.59326 13.6016C3.9458 13.6016 3.41455 14.1245 3.41455 14.7803C3.41455 15.4277 3.9458 15.959 4.59326 15.959Z" fill="#F0F0F0"/>
</svg>
