<svg width="77" height="86" viewBox="0 0 77 86" fill="none" xmlns="http://www.w3.org/2000/svg">
<path d="M17.1111 66.8C17.1111 67.9046 18.0065 68.8 19.1111 68.8H23.6667C24.7712 68.8 25.6667 67.9046 25.6667 66.8V19.2C25.6667 18.0954 24.7712 17.2 23.6667 17.2H19.1111C18.0065 17.2 17.1111 18.0954 17.1111 19.2V66.8ZM34.2222 84C34.2222 85.1046 35.1177 86 36.2222 86H40.7778C41.8823 86 42.7778 85.1046 42.7778 84V2C42.7778 0.895432 41.8823 0 40.7778 0H36.2222C35.1177 0 34.2222 0.895431 34.2222 2V84ZM0 49.6C0 50.7046 0.895431 51.6 2 51.6H6.55555C7.66012 51.6 8.55556 50.7046 8.55556 49.6V36.4C8.55556 35.2954 7.66013 34.4 6.55556 34.4H2C0.895432 34.4 0 35.2954 0 36.4V49.6ZM51.3333 66.8C51.3333 67.9046 52.2288 68.8 53.3333 68.8H57.8889C58.9935 68.8 59.8889 67.9046 59.8889 66.8V19.2C59.8889 18.0954 58.9935 17.2 57.8889 17.2H53.3333C52.2288 17.2 51.3333 18.0954 51.3333 19.2V66.8ZM70.4444 34.4C69.3399 34.4 68.4444 35.2954 68.4444 36.4V49.6C68.4444 50.7046 69.3399 51.6 70.4444 51.6H75C76.1046 51.6 77 50.7046 77 49.6V36.4C77 35.2954 76.1046 34.4 75 34.4H70.4444Z" fill="#F0F0F0" fill-opacity="0.5"/>
</svg>
