<svg width="71" height="70" viewBox="0 0 71 70" fill="none" xmlns="http://www.w3.org/2000/svg">
<g clip-path="url(#clip0_626_6432)">
<path d="M60.9042 56.2625L50.9875 46.375C54.187 42.2988 55.9231 37.2653 55.9167 32.0833C55.9167 27.4684 54.5482 22.9572 51.9843 19.12C49.4204 15.2829 45.7762 12.2922 41.5126 10.5262C37.249 8.76011 32.5575 8.29803 28.0312 9.19835C23.505 10.0987 19.3474 12.321 16.0842 15.5842C12.821 18.8474 10.5987 23.005 9.69835 27.5312C8.79803 32.0575 9.26011 36.749 11.0262 41.0126C12.7922 45.2762 15.7829 48.9204 19.62 51.4843C23.4572 54.0482 27.9684 55.4167 32.5833 55.4167C37.7653 55.4231 42.7988 53.687 46.875 50.4875L56.7625 60.4042C57.0337 60.6775 57.3562 60.8945 57.7117 61.0426C58.0671 61.1907 58.4483 61.2669 58.8333 61.2669C59.2184 61.2669 59.5996 61.1907 59.955 61.0426C60.3104 60.8945 60.633 60.6775 60.9042 60.4042C61.1775 60.133 61.3945 59.8104 61.5426 59.455C61.6907 59.0996 61.7669 58.7184 61.7669 58.3333C61.7669 57.9483 61.6907 57.5671 61.5426 57.2117C61.3945 56.8562 61.1775 56.5337 60.9042 56.2625ZM15.0833 32.0833C15.0833 28.6222 16.1097 25.2387 18.0326 22.3609C19.9555 19.483 22.6887 17.24 25.8864 15.9155C29.0841 14.5909 32.6028 14.2444 35.9974 14.9196C39.3921 15.5948 42.5103 17.2616 44.9577 19.709C47.4051 22.1564 49.0718 25.2746 49.7471 28.6693C50.4223 32.0639 50.0758 35.5826 48.7512 38.7803C47.4267 41.978 45.1837 44.7111 42.3058 46.6341C39.428 48.557 36.0445 49.5833 32.5833 49.5833C27.9421 49.5833 23.4909 47.7396 20.209 44.4577C16.9271 41.1758 15.0833 36.7246 15.0833 32.0833Z" fill="#F0F0F0" fill-opacity="0.5"/>
</g>
<defs>
<clipPath id="clip0_626_6432">
<rect width="70" height="70" fill="white" transform="translate(0.5)"/>
</clipPath>
</defs>
</svg>
