<svg width="27" height="26" viewBox="0 0 27 26" fill="none" xmlns="http://www.w3.org/2000/svg">
<path d="M12.3164 25.0664H14.6836C15.5859 25.0664 16.2773 24.5156 16.4883 23.6484L16.9922 21.457L17.3672 21.3281L19.2773 22.5C20.0391 22.9805 20.918 22.8633 21.5625 22.2188L23.2031 20.5898C23.8477 19.9453 23.9648 19.0547 23.4844 18.3047L22.2891 16.4062L22.4297 16.0547L24.6211 15.5391C25.4766 15.3281 26.0391 14.625 26.0391 13.7344V11.4141C26.0391 10.5234 25.4883 9.82031 24.6211 9.60938L22.4531 9.08203L22.3008 8.70703L23.4961 6.80859C23.9766 6.05859 23.8594 5.17969 23.2148 4.52344L21.5742 2.88281C20.9414 2.25 20.0625 2.13281 19.3008 2.60156L17.3906 3.77344L16.9922 3.62109L16.4883 1.42969C16.2773 0.5625 15.5859 0.0117188 14.6836 0.0117188H12.3164C11.4141 0.0117188 10.7227 0.5625 10.5117 1.42969L9.99609 3.62109L9.59766 3.77344L7.69922 2.60156C6.9375 2.13281 6.04688 2.25 5.41406 2.88281L3.78516 4.52344C3.14062 5.17969 3.01172 6.05859 3.50391 6.80859L4.6875 8.70703L4.54688 9.08203L2.37891 9.60938C1.51172 9.82031 0.960938 10.5234 0.960938 11.4141V13.7344C0.960938 14.625 1.52344 15.3281 2.37891 15.5391L4.57031 16.0547L4.69922 16.4062L3.51562 18.3047C3.02344 19.0547 3.15234 19.9453 3.79688 20.5898L5.42578 22.2188C6.07031 22.8633 6.96094 22.9805 7.72266 22.5L9.62109 21.3281L9.99609 21.457L10.5117 23.6484C10.7227 24.5156 11.4141 25.0664 12.3164 25.0664ZM12.5039 23.2383C12.3047 23.2383 12.1992 23.1562 12.1641 22.9688L11.4609 20.0625C10.7461 19.8867 10.0781 19.6055 9.57422 19.2891L7.01953 20.8594C6.87891 20.9648 6.72656 20.9414 6.58594 20.8008L5.20312 19.418C5.07422 19.2891 5.0625 19.1484 5.15625 18.9844L6.72656 16.4531C6.45703 15.9609 6.15234 15.293 5.96484 14.5781L3.05859 13.8867C2.87109 13.8516 2.78906 13.7461 2.78906 13.5469V11.5898C2.78906 11.3789 2.85938 11.2852 3.05859 11.25L5.95312 10.5469C6.14062 9.78516 6.49219 9.09375 6.70312 8.66016L5.14453 6.12891C5.03906 5.95312 5.05078 5.8125 5.17969 5.67188L6.57422 4.3125C6.71484 4.17188 6.84375 4.14844 7.01953 4.25391L9.55078 5.78906C10.0547 5.50781 10.7695 5.21484 11.4727 5.01562L12.1641 2.10938C12.1992 1.92188 12.3047 1.83984 12.5039 1.83984H14.4961C14.6953 1.83984 14.8008 1.92188 14.8242 2.10938L15.5391 5.03906C16.2656 5.22656 16.8984 5.51953 17.4258 5.80078L19.9688 4.25391C20.1562 4.14844 20.2734 4.17188 20.4258 4.3125L21.8086 5.67188C21.9492 5.8125 21.9492 5.95312 21.8438 6.12891L20.2852 8.66016C20.5078 9.09375 20.8477 9.78516 21.0352 10.5469L23.9414 11.25C24.1289 11.2852 24.2109 11.3789 24.2109 11.5898V13.5469C24.2109 13.7461 24.1172 13.8516 23.9414 13.8867L21.0234 14.5781C20.8359 15.293 20.543 15.9609 20.2617 16.4531L21.832 18.9844C21.9258 19.1484 21.9258 19.2891 21.7852 19.418L20.4141 20.8008C20.2617 20.9414 20.1211 20.9648 19.9688 20.8594L17.4141 19.2891C16.9102 19.6055 16.2539 19.8867 15.5391 20.0625L14.8242 22.9688C14.8008 23.1562 14.6953 23.2383 14.4961 23.2383H12.5039ZM13.5 17.0156C15.9492 17.0156 17.9648 15 17.9648 12.5391C17.9648 10.1016 15.9492 8.08594 13.5 8.08594C11.0508 8.08594 9.02344 10.1016 9.02344 12.5391C9.02344 14.9883 11.0391 17.0156 13.5 17.0156ZM13.5 15.1992C12.0469 15.1992 10.8516 14.0039 10.8516 12.5391C10.8516 11.0977 12.0469 9.90234 13.5 9.90234C14.9297 9.90234 16.125 11.0977 16.125 12.5391C16.125 13.9922 14.9297 15.1992 13.5 15.1992Z" fill="#F0F0F0" fill-opacity="0.5"/>
</svg>
