<svg width="26" height="17" viewBox="0 0 26 17" fill="none" xmlns="http://www.w3.org/2000/svg">
<path d="M24.5796 2.57373L25.2021 1.94287C25.4927 1.63574 25.501 1.229 25.2104 0.946777L25.0112 0.747559C24.7456 0.481934 24.3306 0.506836 24.0483 0.789062L23.4258 1.40332L24.5796 2.57373ZM14.959 11.248L16.6523 10.501L23.9653 3.19629L22.7949 2.04248L15.4985 9.34717L14.7017 10.9824C14.627 11.1235 14.8013 11.3228 14.959 11.248ZM2.99756 16.6353H19.3418C20.9023 16.6353 21.7656 15.8135 21.7656 14.2446V7.46289L20.4292 8.79932V14.311C20.4292 15 20.0391 15.3901 19.3501 15.3901H2.98926C2.30029 15.3901 1.91016 15 1.91016 14.311V7.33008C1.91016 6.64111 2.30029 6.25098 2.98926 6.25098H16.5195L17.7729 5.00586H2.99756C1.43701 5.00586 0.57373 5.82764 0.57373 7.39648V14.2446C0.57373 15.8135 1.43701 16.6353 2.99756 16.6353ZM4.98145 12.0034C5.63721 12.0034 6.16846 11.4722 6.16846 10.8164C6.16846 10.1606 5.63721 9.62939 4.98145 9.62939C4.32568 9.62939 3.79443 10.1606 3.79443 10.8164C3.79443 11.4722 4.32568 12.0034 4.98145 12.0034ZM8.55908 12.0034C9.21484 12.0034 9.74609 11.4722 9.74609 10.8164C9.74609 10.1606 9.21484 9.62939 8.55908 9.62939C7.90332 9.62939 7.37207 10.1606 7.37207 10.8164C7.37207 11.4722 7.90332 12.0034 8.55908 12.0034ZM12.1367 12.0034C12.7925 12.0034 13.3237 11.4722 13.3237 10.8164C13.3237 10.1606 12.7925 9.62939 12.1367 9.62939C11.481 9.62939 10.9497 10.1606 10.9497 10.8164C10.9497 11.4722 11.481 12.0034 12.1367 12.0034Z" fill="#F0F0F0"/>
</svg>
