<svg width="20" height="20" viewBox="0 0 20 20" fill="none" xmlns="http://www.w3.org/2000/svg">
<g clip-path="url(#clip0_1303_9167)">
<path d="M15 1.66699H8.33337L3.33337 6.66699V16.667C3.33337 17.5837 4.08337 18.3337 5.00004 18.3337H15C15.9167 18.3337 16.6667 17.5837 16.6667 16.667V3.33366C16.6667 2.41699 15.9167 1.66699 15 1.66699ZM15 3.33366V16.667H5.00004V7.35866L9.02504 3.33366H15ZM5.83337 14.167H7.50004V15.8337H5.83337V14.167ZM12.5 14.167H14.1667V15.8337H12.5V14.167ZM5.83337 9.16699H7.50004V12.5003H5.83337V9.16699ZM9.16671 12.5003H10.8334V15.8337H9.16671V12.5003ZM9.16671 9.16699H10.8334V10.8337H9.16671V9.16699ZM12.5 9.16699H14.1667V12.5003H12.5V9.16699Z" fill="#F0F0F0" fill-opacity="0.5"/>
</g>
<defs>
<clipPath id="clip0_1303_9167">
<rect width="20" height="20" fill="white"/>
</clipPath>
</defs>
</svg>
