<svg width="47" height="60" viewBox="0 0 47 60" fill="none" xmlns="http://www.w3.org/2000/svg">
<path d="M41 0.833008H17.6667L0.166656 18.333V53.333C0.166656 56.5413 2.79166 59.1663 5.99999 59.1663H41C44.2083 59.1663 46.8333 56.5413 46.8333 53.333V6.66634C46.8333 3.45801 44.2083 0.833008 41 0.833008ZM41 6.66634V53.333H5.99999V20.7538L20.0875 6.66634H41ZM8.91666 44.583H14.75V50.4163H8.91666V44.583ZM32.25 44.583H38.0833V50.4163H32.25V44.583ZM8.91666 27.083H14.75V38.7497H8.91666V27.083ZM20.5833 38.7497H26.4167V50.4163H20.5833V38.7497ZM20.5833 27.083H26.4167V32.9163H20.5833V27.083ZM32.25 27.083H38.0833V38.7497H32.25V27.083Z" fill="#F0F0F0" fill-opacity="0.5"/>
</svg>
