<svg width="71" height="70" viewBox="0 0 71 70" fill="none" xmlns="http://www.w3.org/2000/svg">
<path d="M50.0833 64.1663H20.9167C17.695 64.1663 15.0833 61.5547 15.0833 58.333V20.4163H9.25V14.583H20.9167V11.6663C20.9167 8.44468 23.5283 5.83301 26.75 5.83301H44.25C47.4717 5.83301 50.0833 8.44468 50.0833 11.6663V14.583H61.75V20.4163H55.9167V58.333C55.9167 61.5547 53.305 64.1663 50.0833 64.1663ZM20.9167 20.4163V58.333H50.0833V20.4163H20.9167ZM26.75 11.6663V14.583H44.25V11.6663H26.75ZM44.25 52.4997H38.4167V26.2497H44.25V52.4997ZM32.5833 52.4997H26.75V26.2497H32.5833V52.4997Z" fill="#F0F0F0" fill-opacity="0.5"/>
</svg>
