<svg width="32" height="32" viewBox="0 0 32 32" fill="none" xmlns="http://www.w3.org/2000/svg">
<path d="M22.6667 29.3334H9.33333C7.86057 29.3334 6.66667 28.1395 6.66667 26.6667V9.33341H4V6.66675H9.33333V5.33341C9.33333 3.86066 10.5272 2.66675 12 2.66675H20C21.4728 2.66675 22.6667 3.86066 22.6667 5.33341V6.66675H28V9.33341H25.3333V26.6667C25.3333 28.1395 24.1394 29.3334 22.6667 29.3334ZM9.33333 9.33341V26.6667H22.6667V9.33341H9.33333ZM12 5.33341V6.66675H20V5.33341H12ZM20 24.0001H17.3333V12.0001H20V24.0001ZM14.6667 24.0001H12V12.0001H14.6667V24.0001Z" fill="#F0F0F0" fill-opacity="0.5"/>
</svg>
