<svg width="33" height="39" viewBox="0 0 33 39" fill="none" xmlns="http://www.w3.org/2000/svg">
<g clip-path="url(#clip0_1303_8135)">
<path d="M17.5936 15.7699C17.6633 15.697 17.754 15.6483 17.8527 15.6306C17.9514 15.6129 18.0532 15.6271 18.1435 15.6712C18.2337 15.7153 18.3079 15.7871 18.3554 15.8763C18.4029 15.9655 18.4213 16.0676 18.408 16.168C18.2045 18.0005 18.1017 20.1584 18.8866 21.9667C20.1118 23.2397 20.7655 25.9025 19.7413 27.8424L18.5439 23.3268C18.5669 23.0323 18.8244 22.4067 18.537 22.1736C16.9647 20.5995 15.672 17.6683 17.5936 15.7699ZM4.88137 25.5229C5.42637 25.2499 6.25474 25.6034 6.62503 26.0975C7.05476 26.7756 5.90597 27.3118 5.37074 27.3495C5.15036 27.3644 4.93166 27.3018 4.75186 27.1722C4.57206 27.0426 4.44227 26.8541 4.38458 26.6388C4.32689 26.4235 4.34487 26.1946 4.43544 25.9911C4.52602 25.7877 4.6836 25.6222 4.88137 25.5229ZM5.29677 29.0405C5.3002 28.851 5.37714 28.6704 5.51104 28.5377C5.64494 28.4049 5.8251 28.3305 6.01275 28.3305C6.2004 28.3305 6.38056 28.4049 6.51445 28.5377C6.64835 28.6705 6.72528 28.851 6.7287 29.0405C6.72527 29.23 6.64833 29.4106 6.51443 29.5433C6.38054 29.6761 6.20038 29.7505 6.01273 29.7505C5.82507 29.7505 5.64492 29.6761 5.51103 29.5433C5.37713 29.4105 5.3002 29.23 5.29677 29.0405ZM13.7454 33.1815C13.6238 33.2124 13.4951 33.1938 13.387 33.1297C13.2789 33.0656 13.2001 32.9611 13.1676 32.8388C13.1352 32.7164 13.1517 32.5861 13.2136 32.476C13.2754 32.3659 13.3777 32.2848 13.4984 32.2502C13.62 32.2191 13.7488 32.2377 13.857 32.3018C13.9652 32.3659 14.044 32.4705 14.0765 32.5928C14.1089 32.7152 14.0924 32.8455 14.0305 32.9557C13.9685 33.0659 13.8661 33.1469 13.7454 33.1815ZM12.8103 37.9837C12.6667 37.5506 12.3742 36.6992 11.9645 35.656L19.1433 33.7129C19.4592 34.8365 19.9929 35.8856 20.7134 36.7993C19.5562 37.3013 15.5596 38.3116 12.8103 37.9837Z" fill="#F0F0F0" fill-opacity="0.5"/>
<path fill-rule="evenodd" clip-rule="evenodd" d="M20.0652 33.4642C20.4576 33.3414 21.1693 33.3118 21.0317 32.7046L20.0974 29.1851C20.8838 28.0183 21.267 26.622 21.1875 25.2128C21.1081 23.8036 20.5704 22.4603 19.6578 21.3912C19.192 19.7351 19.0884 17.9965 19.3541 16.2959C19.4644 14.5044 17.3577 14.0562 16.4976 15.6059L15.1036 10.3564C15.07 10.2334 14.9898 10.1287 14.8804 10.065C14.771 10.0012 14.6411 9.98351 14.5188 10.0157L9.83803 11.284L1.94726 13.3976C1.42114 13.5385 1.10456 14.0746 1.23518 14.6034L3.83912 25.1446C3.64743 25.3783 3.51269 25.6542 3.44572 25.9501C3.37875 26.246 3.38141 26.5536 3.45349 26.8482C3.52557 27.1429 3.66505 27.4163 3.86075 27.6467C4.05645 27.877 4.3029 28.0578 4.58031 28.1745C4.44635 28.4057 4.36842 28.6656 4.35288 28.933C4.33735 29.2004 4.38465 29.4677 4.49093 29.7132C4.59721 29.9586 4.75945 30.1751 4.96441 30.3452C5.16936 30.5152 5.41123 30.6338 5.67025 30.6914L7.19852 36.4491C7.23184 36.5723 7.31198 36.6772 7.42151 36.7411C7.53104 36.8049 7.66109 36.8224 7.78337 36.7899L11.0354 35.9077C11.451 36.9684 11.7156 37.7008 12.0013 38.5857C12.0292 38.6757 12.0827 38.7555 12.1552 38.815C12.2277 38.8745 12.316 38.9111 12.4089 38.9203C12.9563 38.9756 13.4966 39 14.0245 39C16.664 38.9715 19.2745 38.4405 21.7192 37.4349C21.7893 37.4025 21.8506 37.3536 21.8981 37.2923C21.9455 37.2309 21.9777 37.1589 21.9918 37.0824C22.006 37.0059 22.0017 36.927 21.9794 36.8525C21.957 36.778 21.9173 36.71 21.8635 36.6543C21.0131 35.7567 20.3954 34.6609 20.0652 33.4642ZM17.8527 15.6306C17.754 15.6483 17.6633 15.697 17.5936 15.7699C15.672 17.6683 16.9647 20.5995 18.537 22.1736C18.8244 22.4067 18.5669 23.0323 18.5439 23.3268L19.7413 27.8424C20.7655 25.9025 20.1118 23.2397 18.8866 21.9667C18.1017 20.1584 18.2045 18.0005 18.408 16.168C18.4213 16.0676 18.4029 15.9655 18.3554 15.8763C18.3079 15.7871 18.2337 15.7153 18.1435 15.6712C18.0532 15.6271 17.9514 15.6129 17.8527 15.6306ZM6.62503 26.0975C6.25474 25.6034 5.42637 25.2499 4.88137 25.5229C4.6836 25.6222 4.52602 25.7877 4.43544 25.9911C4.34487 26.1946 4.32689 26.4235 4.38458 26.6388C4.44227 26.8541 4.57206 27.0426 4.75186 27.1722C4.93166 27.3018 5.15036 27.3644 5.37074 27.3495C5.90597 27.3118 7.05476 26.7756 6.62503 26.0975ZM5.51104 28.5377C5.37714 28.6704 5.3002 28.851 5.29677 29.0405C5.3002 29.23 5.37713 29.4105 5.51103 29.5433C5.64492 29.6761 5.82507 29.7505 6.01273 29.7505C6.20038 29.7505 6.38054 29.6761 6.51443 29.5433C6.64833 29.4106 6.72527 29.23 6.7287 29.0405C6.72528 28.851 6.64835 28.6705 6.51445 28.5377C6.38056 28.4049 6.2004 28.3305 6.01275 28.3305C5.8251 28.3305 5.64494 28.4049 5.51104 28.5377ZM7.32883 30.0618C7.14899 30.3007 6.90942 30.4871 6.63472 30.6016L7.99692 35.7337C9.47769 35.3317 12.4923 34.5145 13.9647 34.1165C13.5989 34.2059 13.2131 34.1461 12.8907 33.9502C12.5682 33.7542 12.3353 33.4378 12.2423 33.0696C12.1492 32.7013 12.2036 32.3109 12.3937 31.9829C12.5837 31.6549 12.8941 31.4157 13.2575 31.3172C13.6209 31.2187 14.0081 31.2689 14.3352 31.4567C14.6624 31.6446 14.903 31.955 15.005 32.3208C15.107 32.6866 15.0622 33.0783 14.8802 33.411C14.6983 33.7436 14.3939 33.9904 14.033 34.098C14.3974 33.9996 19.7738 32.5434 19.9858 32.4878C19.2729 29.8055 17.9561 24.8339 17.2368 22.1272C16.1893 20.8154 15.2366 18.7014 15.8502 16.8898L14.3052 11.0718L10.7458 12.0363L2.19327 14.3744L4.75186 24.5985C5.13553 24.5517 6.12776 24.4427 6.50923 24.785C7.71485 25.3419 8.15673 26.8066 6.98606 27.6745C7.2257 27.852 7.41425 28.0907 7.53234 28.3662C7.65044 28.6416 7.69383 28.9439 7.65807 29.2418C7.6223 29.5398 7.50867 29.8228 7.32883 30.0618ZM13.387 33.1297C13.4951 33.1938 13.6238 33.2124 13.7454 33.1815C13.8661 33.1469 13.9685 33.0659 14.0305 32.9557C14.0924 32.8455 14.1089 32.7152 14.0765 32.5928C14.044 32.4705 13.9652 32.3659 13.857 32.3018C13.7488 32.2377 13.62 32.2191 13.4984 32.2502C13.3777 32.2848 13.2754 32.3659 13.2136 32.476C13.1517 32.5861 13.1352 32.7164 13.1676 32.8388C13.2001 32.9611 13.2789 33.0656 13.387 33.1297ZM11.9645 35.656C12.3742 36.6992 12.6667 37.5506 12.8103 37.9837C15.5596 38.3116 19.5562 37.3013 20.7134 36.7993C19.9929 35.8856 19.4592 34.8365 19.1433 33.7129L11.9645 35.656Z" fill="#F0F0F0" fill-opacity="0.5"/>
<path d="M18.8375 11.9889C19.9421 10.0758 19.3423 7.66162 17.498 6.59677C15.6536 5.53193 13.263 6.21963 12.1584 8.1328" stroke="#F0F0F0" stroke-opacity="0.5" stroke-linecap="round"/>
<path d="M22.3607 11.4515C24.2396 8.19723 23.2194 4.09084 20.0822 2.27958C16.9451 0.468317 12.8788 1.63807 10.9999 4.8923" stroke="#F0F0F0" stroke-opacity="0.5" stroke-width="1.70096" stroke-linecap="round"/>
</g>
<defs>
<clipPath id="clip0_1303_8135">
<rect width="33" height="39" fill="white"/>
</clipPath>
</defs>
</svg>
