<svg width="94" height="103" viewBox="0 0 94 103" fill="none" xmlns="http://www.w3.org/2000/svg">
<g opacity="0.4" filter="url(#filter0_d_854_18775)">
<path fill-rule="evenodd" clip-rule="evenodd" d="M-31.2228 19.2692C1.6264 22.2622 32.1299 37.5969 51.256 64.4617C69.1702 89.6241 67.4886 121.161 63.0814 151.73C57.9538 187.295 57.1696 230.886 24.9618 246.84C-7.39343 262.867 -43.2441 238.086 -74.3951 219.83C-101.346 204.035 -123.66 183.13 -134.019 153.667C-146.37 118.537 -157.613 77.0734 -134.988 47.4923C-112.081 17.5434 -68.7803 15.8472 -31.2228 19.2692Z" fill="#C4C4C4"/>
<path fill-rule="evenodd" clip-rule="evenodd" d="M-31.2228 19.2692C1.6264 22.2622 32.1299 37.5969 51.256 64.4617C69.1702 89.6241 67.4886 121.161 63.0814 151.73C57.9538 187.295 57.1696 230.886 24.9618 246.84C-7.39343 262.867 -43.2441 238.086 -74.3951 219.83C-101.346 204.035 -123.66 183.13 -134.019 153.667C-146.37 118.537 -157.613 77.0734 -134.988 47.4923C-112.081 17.5434 -68.7803 15.8472 -31.2228 19.2692Z" fill="url(#paint0_linear_854_18775)"/>
</g>
<defs>
<filter id="filter0_d_854_18775" x="-163.727" y="0.775108" width="257.437" height="277.437" filterUnits="userSpaceOnUse" color-interpolation-filters="sRGB">
<feFlood flood-opacity="0" result="BackgroundImageFix"/>
<feColorMatrix in="SourceAlpha" type="matrix" values="0 0 0 0 0 0 0 0 0 0 0 0 0 0 0 0 0 0 127 0" result="hardAlpha"/>
<feOffset dx="5.99127" dy="4.49345"/>
<feGaussianBlur stdDeviation="10.8592"/>
<feComposite in2="hardAlpha" operator="out"/>
<feColorMatrix type="matrix" values="0 0 0 0 0 0 0 0 0 0 0 0 0 0 0 0 0 0 0.38 0"/>
<feBlend mode="normal" in2="BackgroundImageFix" result="effect1_dropShadow_854_18775"/>
<feBlend mode="normal" in="SourceGraphic" in2="effect1_dropShadow_854_18775" result="shape"/>
</filter>
<linearGradient id="paint0_linear_854_18775" x1="-136.955" y1="97.8571" x2="71.8852" y2="196.873" gradientUnits="userSpaceOnUse">
<stop stop-color="#7E40A4"/>
<stop offset="1" stop-color="#C02FB2" stop-opacity="0.77"/>
</linearGradient>
</defs>
</svg>
