<svg width="140" height="320" viewBox="0 0 140 320" fill="none" xmlns="http://www.w3.org/2000/svg">
<g opacity="0.3" filter="url(#filter0_d_850_20596)">
<path fill-rule="evenodd" clip-rule="evenodd" d="M-42.3591 18.6046C3.08075 14.091 48.009 35.1936 77.1006 70.3542C106.81 106.262 119.786 154.751 107.461 199.68C95.6848 242.607 59.455 275.005 17.1374 288.936C-19.5112 301.001 -56.1893 282.966 -90.1959 264.75C-121.669 247.891 -153.241 227.377 -162.233 192.852C-171.506 157.25 -156.189 121.773 -135.331 91.4554C-111.861 57.3394 -83.5948 22.7006 -42.3591 18.6046Z" fill="#C4C4C4"/>
<path fill-rule="evenodd" clip-rule="evenodd" d="M-42.3591 18.6046C3.08075 14.091 48.009 35.1936 77.1006 70.3542C106.81 106.262 119.786 154.751 107.461 199.68C95.6848 242.607 59.455 275.005 17.1374 288.936C-19.5112 301.001 -56.1893 282.966 -90.1959 264.75C-121.669 247.891 -153.241 227.377 -162.233 192.852C-171.506 157.25 -156.189 121.773 -135.331 91.4554C-111.861 57.3394 -83.5948 22.7006 -42.3591 18.6046Z" fill="url(#paint0_linear_850_20596)"/>
</g>
<defs>
<filter id="filter0_d_850_20596" x="-180.727" y="0.775108" width="320.533" height="318.286" filterUnits="userSpaceOnUse" color-interpolation-filters="sRGB">
<feFlood flood-opacity="0" result="BackgroundImageFix"/>
<feColorMatrix in="SourceAlpha" type="matrix" values="0 0 0 0 0 0 0 0 0 0 0 0 0 0 0 0 0 0 127 0" result="hardAlpha"/>
<feOffset dx="5.99127" dy="4.49345"/>
<feGaussianBlur stdDeviation="10.8592"/>
<feComposite in2="hardAlpha" operator="out"/>
<feColorMatrix type="matrix" values="0 0 0 0 0 0 0 0 0 0 0 0 0 0 0 0 0 0 0.38 0"/>
<feBlend mode="normal" in2="BackgroundImageFix" result="effect1_dropShadow_850_20596"/>
<feBlend mode="normal" in="SourceGraphic" in2="effect1_dropShadow_850_20596" result="shape"/>
</filter>
<linearGradient id="paint0_linear_850_20596" x1="-150.698" y1="111.798" x2="109.438" y2="247.764" gradientUnits="userSpaceOnUse">
<stop stop-color="#7E40A4"/>
<stop offset="1" stop-color="#C02FB2" stop-opacity="0.77"/>
</linearGradient>
</defs>
</svg>
