<svg width="162" height="311" viewBox="0 0 162 311" fill="none" xmlns="http://www.w3.org/2000/svg">
<g filter="url(#filter0_d_850_19865)">
<path fill-rule="evenodd" clip-rule="evenodd" d="M131.903 18.7213C172.523 13.8217 214.364 34.2846 237.698 67.8782C259.621 99.4385 249.979 139.745 242.088 177.348C233.928 216.23 229.699 263.695 193.271 279.585C157.414 295.225 121.166 264.384 87.2545 244.883C57.8948 228 24.3809 211.465 17.2546 178.366C10.1961 145.582 34.3536 117.288 53.9176 90.0457C75.5349 59.9441 95.1 23.1605 131.903 18.7213Z" fill="#C4C4C4"/>
<path fill-rule="evenodd" clip-rule="evenodd" d="M131.903 18.7213C172.523 13.8217 214.364 34.2846 237.698 67.8782C259.621 99.4385 249.979 139.745 242.088 177.348C233.928 216.23 229.699 263.695 193.271 279.585C157.414 295.225 121.166 264.384 87.2545 244.883C57.8948 228 24.3809 211.465 17.2546 178.366C10.1961 145.582 34.3536 117.288 53.9176 90.0457C75.5349 59.9441 95.1 23.1605 131.903 18.7213Z" fill="url(#paint0_linear_850_19865)"/>
</g>
<defs>
<filter id="filter0_d_850_19865" x="0.272924" y="0.775108" width="278.594" height="309.299" filterUnits="userSpaceOnUse" color-interpolation-filters="sRGB">
<feFlood flood-opacity="0" result="BackgroundImageFix"/>
<feColorMatrix in="SourceAlpha" type="matrix" values="0 0 0 0 0 0 0 0 0 0 0 0 0 0 0 0 0 0 127 0" result="hardAlpha"/>
<feOffset dx="5.99127" dy="4.49345"/>
<feGaussianBlur stdDeviation="10.8592"/>
<feComposite in2="hardAlpha" operator="out"/>
<feColorMatrix type="matrix" values="0 0 0 0 0 0 0 0 0 0 0 0 0 0 0 0 0 0 0.38 0"/>
<feBlend mode="normal" in2="BackgroundImageFix" result="effect1_dropShadow_850_19865"/>
<feBlend mode="normal" in="SourceGraphic" in2="effect1_dropShadow_850_19865" result="shape"/>
</filter>
<linearGradient id="paint0_linear_850_19865" x1="28.1371" y1="108.731" x2="260.377" y2="215.226" gradientUnits="userSpaceOnUse">
<stop stop-color="#7E40A4"/>
<stop offset="1" stop-color="#C02FB2" stop-opacity="0.77"/>
</linearGradient>
</defs>
</svg>
