<svg width="29" height="28" viewBox="0 0 29 28" fill="none" xmlns="http://www.w3.org/2000/svg">
<g clip-path="url(#clip0_614_4699)">
<path d="M18.4925 5.8335C19.0779 5.8335 19.5531 6.29083 19.5531 6.85433V11.1418L25.082 7.41579C25.3217 7.2545 25.6526 7.31064 25.8213 7.54237C25.8828 7.62812 25.9167 7.7302 25.9167 7.83433V20.166C25.9167 20.4477 25.6791 20.6764 25.3864 20.6764C25.2772 20.6764 25.1711 20.6437 25.082 20.5845L19.5531 16.8585V21.146C19.5531 21.7095 19.0779 22.1668 18.4925 22.1668H3.64398C3.05853 22.1668 2.58337 21.7095 2.58337 21.146V6.85433C2.58337 6.29083 3.05853 5.8335 3.64398 5.8335H18.4925ZM12.1288 9.91683H10.0076V14.0002H6.8258L11.0682 18.0835L15.3106 14.0002H12.1288V9.91683Z" fill="#F0F0F0" fill-opacity="0.5"/>
<path d="M12.1288 9.91683H10.0076V14.0002H6.8258L11.0682 18.0835L15.3106 14.0002H12.1288V9.91683Z" fill="#F0F0F0" fill-opacity="0.5"/>
</g>
<defs>
<clipPath id="clip0_614_4699">
<rect width="28" height="28" fill="white" transform="translate(0.25)"/>
</clipPath>
</defs>
</svg>
