<svg width="90" height="112" viewBox="0 0 90 112" fill="none" xmlns="http://www.w3.org/2000/svg">
<g filter="url(#filter0_d_860_21204)">
<path fill-rule="evenodd" clip-rule="evenodd" d="M75.3667 38.2986C66.7611 18.9386 45.5935 8.93226 24.2095 9.79267C22.7166 9.85274 21.4563 8.70598 21.3945 7.23131C21.3327 5.75664 22.4929 4.51248 23.9858 4.45241C47.0083 3.52607 70.6039 14.2922 80.3209 36.1526C90.0921 58.1349 80.0213 82.2163 65.9461 98.3946C64.9725 99.5136 63.2644 99.6406 62.1309 98.6783C60.9974 97.716 60.8677 96.0287 61.8413 94.9097C75.3166 79.4208 83.9181 57.5369 75.3667 38.2986ZM55.0774 47.0874C48.6543 32.6371 32.8184 25.105 16.7238 25.7526C15.2308 25.8127 13.9705 24.6659 13.9087 23.1912C13.8469 21.7166 15.0071 20.4724 16.5 20.4123C34.2333 19.6988 52.4971 27.9907 60.0317 44.9414C67.6204 62.0138 59.7737 80.6202 48.98 93.0267C48.0065 94.1457 46.2984 94.2727 45.1649 93.3103C44.0314 92.348 43.9017 90.6607 44.8752 89.5417C55.069 77.8248 61.4464 61.4158 55.0774 47.0874ZM34.5084 55.9989C31.1591 48.4641 22.8662 44.4131 14.2772 44.7438C12.7842 44.8013 11.5259 43.6524 11.4667 42.1776C11.4075 40.7028 12.5699 39.4607 14.0629 39.4032C24.3029 39.0089 35.0086 43.8328 39.4626 53.853C43.971 63.9957 39.3059 74.8644 33.1744 81.9409C32.2031 83.0618 30.4953 83.1922 29.3598 82.2322C28.2244 81.2721 28.0912 79.5851 29.0625 78.4641C34.5879 72.0872 37.8032 63.4113 34.5084 55.9989Z" fill="#3DCE4B"/>
</g>
<defs>
<filter id="filter0_d_860_21204" x="0.4646" y="0.397339" width="88.7454" height="110.927" filterUnits="userSpaceOnUse" color-interpolation-filters="sRGB">
<feFlood flood-opacity="0" result="BackgroundImageFix"/>
<feColorMatrix in="SourceAlpha" type="matrix" values="0 0 0 0 0 0 0 0 0 0 0 0 0 0 0 0 0 0 127 0" result="hardAlpha"/>
<feOffset dx="-3" dy="4"/>
<feGaussianBlur stdDeviation="4"/>
<feComposite in2="hardAlpha" operator="out"/>
<feColorMatrix type="matrix" values="0 0 0 0 0 0 0 0 0 0 0 0 0 0 0 0 0 0 0.47 0"/>
<feBlend mode="normal" in2="BackgroundImageFix" result="effect1_dropShadow_860_21204"/>
<feBlend mode="normal" in="SourceGraphic" in2="effect1_dropShadow_860_21204" result="shape"/>
</filter>
</defs>
</svg>
