<svg width="318" height="72" viewBox="0 0 318 72" fill="none" xmlns="http://www.w3.org/2000/svg">
<g filter="url(#filter0_d_851_21599)">
<rect x="-27" y="2" width="335" height="52" rx="12" fill="#242526" shape-rendering="crispEdges"/>
<g clip-path="url(#clip0_851_21599)">
<path d="M-3.50081 19.3056C-5.29601 21.096 -13.144 32.2896 -6.36321 39.0688C0.414391 45.8496 11.6048 38 13.4032 36.2064C15.1968 34.416 12.8672 29.1744 8.19999 24.5072C3.52959 19.8368 -1.70561 17.5056 -3.50081 19.3056ZM11.3216 34.6496C10.7904 35.1744 6.68959 33.9184 2.73919 29.9648C-1.20801 26.0144 -2.47041 21.912 -1.93921 21.384C-1.41441 20.8528 2.69119 22.1152 6.63679 26.0656C10.5904 30.0128 11.8496 34.1184 11.3216 34.6496ZM12.6944 21.5712L15.7408 18.5216C16.0408 18.2216 16.2093 17.8147 16.2093 17.3904C16.2093 16.9661 16.0408 16.5592 15.7408 16.2592C15.4408 15.9592 15.0339 15.7906 14.6096 15.7906C14.1853 15.7906 13.7784 15.9592 13.4784 16.2592L10.432 19.3088C10.132 19.6088 9.96343 20.0157 9.96343 20.44C9.96343 20.6501 10.0048 20.8581 10.0852 21.0522C10.1656 21.2463 10.2834 21.4226 10.432 21.5712C10.5805 21.7198 10.7569 21.8376 10.951 21.918C11.1451 21.9984 11.3531 22.0398 11.5632 22.0398C11.9875 22.0398 12.3944 21.8712 12.6944 21.5712ZM5.79839 18.08C5.98203 18.1821 6.18399 18.2471 6.39273 18.2711C6.60147 18.2952 6.81291 18.2779 7.01497 18.2203C7.21703 18.1626 7.40576 18.0658 7.57038 17.9352C7.73499 17.8046 7.87228 17.6428 7.97439 17.4592L9.71359 14.3776C9.91982 14.0067 9.97028 13.5691 9.85386 13.161C9.73743 12.7529 9.46367 12.4078 9.09279 12.2016C8.72191 11.9954 8.2843 11.9449 7.87622 12.0613C7.46814 12.1778 7.12302 12.4515 6.91679 12.8224L5.17759 15.904C5.07547 16.0876 5.01052 16.2896 4.98644 16.4983C4.96237 16.7071 4.97966 16.9185 5.0373 17.1206C5.09495 17.3226 5.19183 17.5114 5.32242 17.676C5.45301 17.8406 5.61474 17.9779 5.79839 18.08ZM19.7952 22.9056C19.6932 22.7218 19.556 22.5599 19.3914 22.4292C19.2268 22.2985 19.0381 22.2015 18.836 22.1439C18.6338 22.0862 18.4223 22.069 18.2135 22.0932C18.0047 22.1173 17.8028 22.1825 17.6192 22.2848L14.5152 23.9824C14.3316 24.0845 14.1698 24.2218 14.0392 24.3864C13.9087 24.551 13.8118 24.7398 13.7541 24.9418C13.6965 25.1439 13.6792 25.3553 13.7033 25.5641C13.7273 25.7728 13.7923 25.9748 13.8944 26.1584C13.9965 26.342 14.1338 26.5038 14.2984 26.6344C14.463 26.7649 14.6518 26.8618 14.8538 26.9195C15.0559 26.9771 15.2673 26.9944 15.4761 26.9703C15.6848 26.9463 15.8867 26.8813 16.0704 26.7792L19.1744 25.0816C19.358 24.9795 19.5198 24.8422 19.6504 24.6776C19.7809 24.513 19.8778 24.3242 19.9355 24.1222C19.9931 23.9201 20.0104 23.7087 19.9863 23.4999C19.9623 23.2912 19.8973 23.0892 19.7952 22.9056Z" fill="#F0F0F0" fill-opacity="0.5"/>
</g>
<path d="M33.8428 34H35.2539L38.043 24.4043H38.0762L40.8652 34H42.2764L45.5386 22.022H43.978L41.5625 31.8584H41.5293L38.8149 22.022H37.3042L34.5898 31.8584H34.5566L32.1411 22.022H30.5806L33.8428 34ZM47.6636 23.9062C48.1699 23.9062 48.5684 23.4995 48.5684 23.0015C48.5684 22.4951 48.1699 22.0967 47.6636 22.0967C47.1655 22.0967 46.7588 22.4951 46.7588 23.0015C46.7588 23.4995 47.1655 23.9062 47.6636 23.9062ZM46.9414 34H48.3857V25.3672H46.9414V34ZM50.353 34H51.7974V28.9199C51.7974 27.4507 52.6855 26.4795 54.0469 26.4795C55.375 26.4795 56.0308 27.2515 56.0308 28.6543V34H57.4751V28.397C57.4751 26.4297 56.3794 25.2012 54.4868 25.2012C53.1753 25.2012 52.2954 25.7905 51.8306 26.5957H51.7974V25.3672H50.353V34ZM62.5635 34.166C63.8003 34.166 64.7632 33.5435 65.3027 32.5391H65.3359V34H66.7803V22.022H65.3359V26.8115H65.3027C64.7632 25.8154 63.7588 25.2012 62.5386 25.2012C60.3721 25.2012 58.8945 26.9526 58.8945 29.6753V29.6836C58.8945 32.4062 60.3555 34.166 62.5635 34.166ZM62.8457 32.8877C61.3184 32.8877 60.3721 31.6675 60.3721 29.6836V29.6753C60.3721 27.708 61.3184 26.4795 62.8457 26.4795C64.2983 26.4795 65.3442 27.7495 65.3442 29.6753V29.6836C65.3442 31.6177 64.3066 32.8877 62.8457 32.8877Z" fill="#F0F0F0"/>
<rect x="-26.5" y="2.5" width="334" height="51" rx="11.5" stroke="#1C061E" stroke-opacity="0.36" shape-rendering="crispEdges"/>
</g>
<defs>
<filter id="filter0_d_851_21599" x="-37" y="0" width="355" height="72" filterUnits="userSpaceOnUse" color-interpolation-filters="sRGB">
<feFlood flood-opacity="0" result="BackgroundImageFix"/>
<feColorMatrix in="SourceAlpha" type="matrix" values="0 0 0 0 0 0 0 0 0 0 0 0 0 0 0 0 0 0 127 0" result="hardAlpha"/>
<feOffset dy="8"/>
<feGaussianBlur stdDeviation="5"/>
<feComposite in2="hardAlpha" operator="out"/>
<feColorMatrix type="matrix" values="0 0 0 0 0 0 0 0 0 0 0 0 0 0 0 0 0 0 0.25 0"/>
<feBlend mode="normal" in2="BackgroundImageFix" result="effect1_dropShadow_851_21599"/>
<feBlend mode="normal" in="SourceGraphic" in2="effect1_dropShadow_851_21599" result="shape"/>
</filter>
<clipPath id="clip0_851_21599">
<rect width="32" height="32" fill="white" transform="translate(-12 12)"/>
</clipPath>
</defs>
</svg>
