<svg width="60" height="60" viewBox="0 0 60 60" fill="none" xmlns="http://www.w3.org/2000/svg">
<g filter="url(#filter0_dd_630_8219)">
<circle cx="30" cy="30" r="30" fill="#F0F0F0"/>
<path opacity="0.5" d="M18.6863 41.3137C19.6253 42.2527 21.1477 42.2527 22.0867 41.3137L29.9678 33.4325L37.849 41.3137C38.8057 42.2705 40.3569 42.2705 41.3137 41.3137V41.3137C42.2704 40.357 42.2704 38.8058 41.3137 37.849L33.4325 29.9679L41.3137 22.0867C42.2527 21.1477 42.2527 19.6253 41.3137 18.6863V18.6863C40.3747 17.7473 38.8523 17.7473 37.9133 18.6863L30.0321 26.5675L22.151 18.6863C21.1942 17.7295 19.643 17.7295 18.6863 18.6863V18.6863C17.7295 19.643 17.7295 21.1942 18.6863 22.151L26.5674 30.0321L18.6863 37.9133C17.7473 38.8523 17.7473 40.3747 18.6863 41.3137V41.3137Z" fill="#242526"/>
</g>
<defs>
<filter id="filter0_dd_630_8219" x="0" y="0" width="60" height="60" filterUnits="userSpaceOnUse" color-interpolation-filters="sRGB">
<feFlood flood-opacity="0" result="BackgroundImageFix"/>
<feColorMatrix in="SourceAlpha" type="matrix" values="0 0 0 0 0 0 0 0 0 0 0 0 0 0 0 0 0 0 127 0" result="hardAlpha"/>
<feMorphology radius="16" operator="erode" in="SourceAlpha" result="effect1_dropShadow_630_8219"/>
<feOffset dy="1"/>
<feGaussianBlur stdDeviation="2.5"/>
<feComposite in2="hardAlpha" operator="out"/>
<feColorMatrix type="matrix" values="0 0 0 0 0 0 0 0 0 0 0 0 0 0 0 0 0 0 0.2 0"/>
<feBlend mode="normal" in2="BackgroundImageFix" result="effect1_dropShadow_630_8219"/>
<feColorMatrix in="SourceAlpha" type="matrix" values="0 0 0 0 0 0 0 0 0 0 0 0 0 0 0 0 0 0 127 0" result="hardAlpha"/>
<feMorphology radius="16" operator="erode" in="SourceAlpha" result="effect2_dropShadow_630_8219"/>
<feOffset/>
<feGaussianBlur stdDeviation="4"/>
<feComposite in2="hardAlpha" operator="out"/>
<feColorMatrix type="matrix" values="0 0 0 0 0 0 0 0 0 0 0 0 0 0 0 0 0 0 0.53 0"/>
<feBlend mode="normal" in2="effect1_dropShadow_630_8219" result="effect2_dropShadow_630_8219"/>
<feBlend mode="normal" in="SourceGraphic" in2="effect2_dropShadow_630_8219" result="shape"/>
</filter>
</defs>
</svg>
