<svg width="26" height="26" viewBox="0 0 26 26" fill="none" xmlns="http://www.w3.org/2000/svg">
<path opacity="0.5" d="M1.68627 24.3137C2.62526 25.2527 4.14768 25.2527 5.08668 24.3137L12.9678 16.4325L20.849 24.3137C21.8057 25.2705 23.3569 25.2705 24.3137 24.3137V24.3137C25.2704 23.357 25.2704 21.8058 24.3137 20.849L16.4325 12.9679L24.3137 5.0867C25.2527 4.14771 25.2527 2.62529 24.3137 1.68629V1.68629C23.3747 0.747295 21.8523 0.747295 20.9133 1.68629L13.0321 9.56745L5.15096 1.68629C4.19421 0.729543 2.64302 0.729543 1.68627 1.68629V1.68629C0.72952 2.64304 0.72952 4.19423 1.68627 5.15098L9.56743 13.0321L1.68627 20.9133C0.747269 21.8523 0.747271 23.3747 1.68627 24.3137V24.3137Z" fill="#242526"/>
</svg>
